<?xml version="1.0" encoding="UTF-8" standalone="no"?>
<!DOCTYPE svg PUBLIC "-//W3C//DTD SVG 1.1//EN"
 "http://www.w3.org/Graphics/SVG/1.1/DTD/svg11.dtd">
<!-- Generated by graphviz version 2.48.0 (20210717.1556)
 -->
<!-- Title: GoogleKeyColumn_PullKey Pages: 1 -->
<svg width="468pt" height="497pt"
 viewBox="0.00 0.00 468.32 497.00" xmlns="http://www.w3.org/2000/svg" xmlns:xlink="http://www.w3.org/1999/xlink">
<g id="graph0" class="graph" transform="scale(1 1) rotate(0) translate(4 493)">
<title>GoogleKeyColumn_PullKey</title>
<polygon fill="transparent" stroke="transparent" points="-4,4 -4,-493 464.32,-493 464.32,4 -4,4"/>
<!-- hasCellNote -->
<g id="node1" class="node">
<title>hasCellNote</title>
<path fill="#daedfd" stroke="#2196f3" d="M249.82,-489C249.82,-489 184.82,-489 184.82,-489 178.82,-489 172.82,-483 172.82,-477 172.82,-477 172.82,-465 172.82,-465 172.82,-459 178.82,-453 184.82,-453 184.82,-453 249.82,-453 249.82,-453 255.82,-453 261.82,-459 261.82,-465 261.82,-465 261.82,-477 261.82,-477 261.82,-483 255.82,-489 249.82,-489"/>
<text text-anchor="middle" x="217.32" y="-474" font-family="inter" font-size="10.00">Has Key Id</text>
<text text-anchor="middle" x="217.32" y="-463" font-family="inter" font-size="10.00">(cell note value)</text>
</g>
<!-- findEntryKeyId -->
<g id="node2" class="node">
<title>findEntryKeyId</title>
<path fill="#daedfd" stroke="#2196f3" d="M168.82,-376C168.82,-376 103.82,-376 103.82,-376 97.82,-376 91.82,-370 91.82,-364 91.82,-364 91.82,-352 91.82,-352 91.82,-346 97.82,-340 103.82,-340 103.82,-340 168.82,-340 168.82,-340 174.82,-340 180.82,-346 180.82,-352 180.82,-352 180.82,-364 180.82,-364 180.82,-370 174.82,-376 168.82,-376"/>
<text text-anchor="middle" x="136.32" y="-361" font-family="inter" font-size="10.00">Find entry with</text>
<text text-anchor="middle" x="136.32" y="-350" font-family="inter" font-size="10.00">matching Key Id</text>
</g>
<!-- hasCellNote&#45;&gt;findEntryKeyId -->
<g id="edge1" class="edge">
<title>hasCellNote&#45;&gt;findEntryKeyId</title>
<path fill="none" stroke="#2196f3" stroke-width="1.5" d="M204.67,-452.66C191.29,-434.33 170.07,-405.24 154.82,-384.34"/>
<polygon fill="#2196f3" stroke="#2196f3" stroke-width="1.5" points="157.61,-382.24 148.89,-376.22 151.96,-386.36 157.61,-382.24"/>
<text text-anchor="middle" x="192.32" y="-412" font-family="inter" font-size="10.00"> &#160;&#160;Yes</text>
</g>
<!-- findEntryKey -->
<g id="node3" class="node">
<title>findEntryKey</title>
<path fill="#daedfd" stroke="#2196f3" d="M392.32,-376C392.32,-376 332.32,-376 332.32,-376 326.32,-376 320.32,-370 320.32,-364 320.32,-364 320.32,-352 320.32,-352 320.32,-346 326.32,-340 332.32,-340 332.32,-340 392.32,-340 392.32,-340 398.32,-340 404.32,-346 404.32,-352 404.32,-352 404.32,-364 404.32,-364 404.32,-370 398.32,-376 392.32,-376"/>
<text text-anchor="middle" x="362.32" y="-361" font-family="inter" font-size="10.00">Find entry with</text>
<text text-anchor="middle" x="362.32" y="-350" font-family="inter" font-size="10.00">matching Key</text>
</g>
<!-- hasCellNote&#45;&gt;findEntryKey -->
<g id="edge2" class="edge">
<title>hasCellNote&#45;&gt;findEntryKey</title>
<path fill="none" stroke="#2196f3" stroke-width="1.5" d="M239.66,-452.9C264.28,-434.05 304.04,-403.61 331.59,-382.52"/>
<polygon fill="#2196f3" stroke="#2196f3" stroke-width="1.5" points="333.91,-385.16 339.72,-376.3 329.65,-379.6 333.91,-385.16"/>
<text text-anchor="middle" x="304.32" y="-412" font-family="inter" font-size="10.00"> &#160;No</text>
</g>
<!-- addEntryId -->
<g id="node5" class="node">
<title>addEntryId</title>
<path fill="#daedfd" stroke="#2196f3" d="M114.32,-252C114.32,-252 34.32,-252 34.32,-252 28.32,-252 22.32,-246 22.32,-240 22.32,-240 22.32,-228 22.32,-228 22.32,-222 28.32,-216 34.32,-216 34.32,-216 114.32,-216 114.32,-216 120.32,-216 126.32,-222 126.32,-228 126.32,-228 126.32,-240 126.32,-240 126.32,-246 120.32,-252 114.32,-252"/>
<text text-anchor="middle" x="74.32" y="-237" font-family="inter" font-size="10.00">Add new entry with</text>
<text text-anchor="middle" x="74.32" y="-226" font-family="inter" font-size="10.00">Key and Key Id</text>
</g>
<!-- findEntryKeyId&#45;&gt;addEntryId -->
<g id="edge3" class="edge">
<title>findEntryKeyId&#45;&gt;addEntryId</title>
<path fill="none" stroke="#2196f3" stroke-width="1.5" d="M123.83,-339.94C117.24,-330.51 109.31,-318.42 103.32,-307 95.67,-292.4 88.7,-275.32 83.52,-261.46"/>
<polygon fill="#2196f3" stroke="#2196f3" stroke-width="1.5" points="86.79,-260.21 80.08,-252.01 80.22,-262.61 86.79,-260.21"/>
<text text-anchor="middle" x="136.82" y="-299" font-family="inter" font-size="10.00"> &#160;&#160;No matching</text>
<text text-anchor="middle" x="136.82" y="-288" font-family="inter" font-size="10.00">entry found</text>
</g>
<!-- renameEntry -->
<g id="node6" class="node">
<title>renameEntry</title>
<path fill="#daedfd" stroke="#2196f3" d="M236.32,-139C236.32,-139 160.32,-139 160.32,-139 154.32,-139 148.32,-133 148.32,-127 148.32,-127 148.32,-115 148.32,-115 148.32,-109 154.32,-103 160.32,-103 160.32,-103 236.32,-103 236.32,-103 242.32,-103 248.32,-109 248.32,-115 248.32,-115 248.32,-127 248.32,-127 248.32,-133 242.32,-139 236.32,-139"/>
<text text-anchor="middle" x="198.32" y="-118.5" font-family="inter" font-size="10.00">Rename entry Key</text>
</g>
<!-- findEntryKeyId&#45;&gt;renameEntry -->
<g id="edge4" class="edge">
<title>findEntryKeyId&#45;&gt;renameEntry</title>
<path fill="none" stroke="#2196f3" stroke-width="1.5" d="M153.36,-339.99C161.38,-330.95 170.26,-319.2 175.32,-307 197.21,-254.21 199.85,-186.23 199.38,-149.13"/>
<polygon fill="#2196f3" stroke="#2196f3" stroke-width="1.5" points="202.87,-149.01 199.16,-139.09 195.88,-149.16 202.87,-149.01"/>
<text text-anchor="middle" x="240.32" y="-237" font-family="inter" font-size="10.00"> &#160;&#160;&#160;Entry found with</text>
<text text-anchor="middle" x="240.32" y="-226" font-family="inter" font-size="10.00">different Key</text>
</g>
<!-- returnEntry -->
<g id="node7" class="node">
<title>returnEntry</title>
<path fill="#daedfd" stroke="#2196f3" d="M169.32,-36C169.32,-36 121.32,-36 121.32,-36 115.32,-36 109.32,-30 109.32,-24 109.32,-24 109.32,-12 109.32,-12 109.32,-6 115.32,0 121.32,0 121.32,0 169.32,0 169.32,0 175.32,0 181.32,-6 181.32,-12 181.32,-12 181.32,-24 181.32,-24 181.32,-30 175.32,-36 169.32,-36"/>
<text text-anchor="middle" x="145.32" y="-15.5" font-family="inter" font-size="10.00">Return entry</text>
</g>
<!-- findEntryKeyId&#45;&gt;returnEntry -->
<g id="edge9" class="edge">
<title>findEntryKeyId&#45;&gt;returnEntry</title>
<path fill="none" stroke="#2196f3" stroke-width="1.5" d="M100.1,-339.96C68.27,-322.75 24.04,-292.88 4.32,-252 -2.63,-237.59 0.94,-231.64 4.32,-216 20.01,-143.58 80.88,-77.54 117.32,-43.39"/>
<polygon fill="#2196f3" stroke="#2196f3" stroke-width="1.5" points="120.15,-45.55 125.14,-36.2 115.41,-40.4 120.15,-45.55"/>
<text text-anchor="middle" x="48.32" y="-175" font-family="inter" font-size="10.00"> &#160;Entry found</text>
</g>
<!-- addEntryKey -->
<g id="node4" class="node">
<title>addEntryKey</title>
<path fill="#daedfd" stroke="#2196f3" d="M391.82,-252C391.82,-252 332.82,-252 332.82,-252 326.82,-252 320.82,-246 320.82,-240 320.82,-240 320.82,-228 320.82,-228 320.82,-222 326.82,-216 332.82,-216 332.82,-216 391.82,-216 391.82,-216 397.82,-216 403.82,-222 403.82,-228 403.82,-228 403.82,-240 403.82,-240 403.82,-246 397.82,-252 391.82,-252"/>
<text text-anchor="middle" x="362.32" y="-237" font-family="inter" font-size="10.00">Add new entry</text>
<text text-anchor="middle" x="362.32" y="-226" font-family="inter" font-size="10.00">with Key</text>
</g>
<!-- findEntryKey&#45;&gt;addEntryKey -->
<g id="edge5" class="edge">
<title>findEntryKey&#45;&gt;addEntryKey</title>
<path fill="none" stroke="#2196f3" stroke-width="1.5" d="M362.32,-339.78C362.32,-319.62 362.32,-285.96 362.32,-262.25"/>
<polygon fill="#2196f3" stroke="#2196f3" stroke-width="1.5" points="365.82,-262.13 362.32,-252.13 358.82,-262.13 365.82,-262.13"/>
<text text-anchor="middle" x="395.82" y="-299" font-family="inter" font-size="10.00"> &#160;&#160;No matching</text>
<text text-anchor="middle" x="395.82" y="-288" font-family="inter" font-size="10.00">entry found</text>
</g>
<!-- findEntryKey&#45;&gt;returnEntry -->
<g id="edge10" class="edge">
<title>findEntryKey&#45;&gt;returnEntry</title>
<path fill="none" stroke="#2196f3" stroke-width="1.5" d="M402,-339.88C415.39,-331.95 428.83,-321.1 436.32,-307 447.64,-285.69 437.93,-240.25 422.32,-216 365.35,-127.51 253.32,-66.7 190.6,-37.96"/>
<polygon fill="#2196f3" stroke="#2196f3" stroke-width="1.5" points="191.9,-34.7 181.34,-33.78 189.02,-41.08 191.9,-34.7"/>
<text text-anchor="middle" x="428.32" y="-175" font-family="inter" font-size="10.00"> &#160;&#160;&#160;Entry found</text>
</g>
<!-- addEntryKey&#45;&gt;renameEntry -->
<g id="edge6" class="edge">
<title>addEntryKey&#45;&gt;renameEntry</title>
<path fill="none" stroke="#2196f3" stroke-width="1.5" d="M337.06,-215.9C308.89,-196.83 263.19,-165.91 232,-144.8"/>
<polygon fill="#2196f3" stroke="#2196f3" stroke-width="1.5" points="233.86,-141.83 223.62,-139.12 229.94,-147.62 233.86,-141.83"/>
</g>
<!-- addEntryId&#45;&gt;returnEntry -->
<g id="edge7" class="edge">
<title>addEntryId&#45;&gt;returnEntry</title>
<path fill="none" stroke="#2196f3" stroke-width="1.5" d="M80.01,-215.85C92.35,-178.68 121.62,-90.44 136.42,-45.82"/>
<polygon fill="#2196f3" stroke="#2196f3" stroke-width="1.5" points="139.78,-46.83 139.61,-36.23 133.13,-44.62 139.78,-46.83"/>
</g>
<!-- renameEntry&#45;&gt;returnEntry -->
<g id="edge8" class="edge">
<title>renameEntry&#45;&gt;returnEntry</title>
<path fill="none" stroke="#2196f3" stroke-width="1.5" d="M189.33,-102.87C181.03,-87.05 168.59,-63.33 159.04,-45.15"/>
<polygon fill="#2196f3" stroke="#2196f3" stroke-width="1.5" points="162.1,-43.45 154.36,-36.22 155.9,-46.7 162.1,-43.45"/>
</g>
</g>
</svg>
