<?xml version="1.0" encoding="UTF-8" standalone="no"?>
<!DOCTYPE svg PUBLIC "-//W3C//DTD SVG 1.1//EN"
 "http://www.w3.org/Graphics/SVG/1.1/DTD/svg11.dtd">
<!-- Generated by graphviz version 2.47.0 (20210316.0004)
 -->
<!-- Title: TableCollection Pages: 1 -->
<svg width="415pt" height="203pt"
 viewBox="0.00 0.00 415.00 203.00" xmlns="http://www.w3.org/2000/svg" xmlns:xlink="http://www.w3.org/1999/xlink">
<g id="graph0" class="graph" transform="scale(1 1) rotate(0) translate(4 199)">
<title>TableCollection</title>
<polygon fill="transparent" stroke="transparent" points="-4,4 -4,-199 411,-199 411,4 -4,4"/>
<g id="clust1" class="cluster">
<title>cluster_editor</title>
<path fill="#daedfd" stroke="#2196f3" d="M20,-62C20,-62 135,-62 135,-62 141,-62 147,-68 147,-74 147,-74 147,-121 147,-121 147,-127 141,-133 135,-133 135,-133 20,-133 20,-133 14,-133 8,-127 8,-121 8,-121 8,-74 8,-74 8,-68 14,-62 20,-62"/>
<text text-anchor="middle" x="30" y="-121" font-family="inter" font-size="10.00">Editor</text>
</g>
<g id="clust2" class="cluster">
<title>cluster_player</title>
<path fill="#fff7e1" stroke="#ffcb27" d="M179,-8C179,-8 387,-8 387,-8 393,-8 399,-14 399,-20 399,-20 399,-175 399,-175 399,-181 393,-187 387,-187 387,-187 179,-187 179,-187 173,-187 167,-181 167,-175 167,-175 167,-20 167,-20 167,-14 173,-8 179,-8"/>
<text text-anchor="middle" x="189.5" y="-175" font-family="inter" font-size="10.00">Player</text>
</g>
<!-- collection -->
<g id="node1" class="node">
<title>collection</title>
<path fill="#f5f5f5" stroke="#2196f3" d="M127,-106C127,-106 28,-106 28,-106 22,-106 16,-100 16,-94 16,-94 16,-82 16,-82 16,-76 22,-70 28,-70 28,-70 127,-70 127,-70 133,-70 139,-76 139,-82 139,-82 139,-94 139,-94 139,-100 133,-106 127,-106"/>
<text text-anchor="middle" x="77.5" y="-85.5" font-family="inter" font-size="10.00">Asset Table Collection</text>
</g>
<!-- english -->
<g id="node2" class="node">
<title>english</title>
<path fill="#f5f5f5" stroke="#2196f3" d="M236,-160C236,-160 187,-160 187,-160 181,-160 175,-154 175,-148 175,-148 175,-136 175,-136 175,-130 181,-124 187,-124 187,-124 236,-124 236,-124 242,-124 248,-130 248,-136 248,-136 248,-148 248,-148 248,-154 242,-160 236,-160"/>
<text text-anchor="middle" x="211.5" y="-145" font-family="inter" font-size="10.00">Asset Table</text>
<text text-anchor="middle" x="211.5" y="-134" font-family="inter" font-size="10.00">English</text>
</g>
<!-- collection&#45;&gt;english -->
<g id="edge1" class="edge">
<title>collection&#45;&gt;english</title>
<path fill="none" stroke="#2196f3" stroke-width="1.5" d="M78,-106.28C78,-121.95 78,-142 78,-142 78,-142 164.67,-142 164.67,-142"/>
<polygon fill="#2196f3" stroke="#2196f3" stroke-width="1.5" points="164.67,-145.5 174.67,-142 164.67,-138.5 164.67,-145.5"/>
</g>
<!-- french -->
<g id="node3" class="node">
<title>french</title>
<path fill="#f5f5f5" stroke="#2196f3" d="M236,-106C236,-106 187,-106 187,-106 181,-106 175,-100 175,-94 175,-94 175,-82 175,-82 175,-76 181,-70 187,-70 187,-70 236,-70 236,-70 242,-70 248,-76 248,-82 248,-82 248,-94 248,-94 248,-100 242,-106 236,-106"/>
<text text-anchor="middle" x="211.5" y="-91" font-family="inter" font-size="10.00">Asset Table</text>
<text text-anchor="middle" x="211.5" y="-80" font-family="inter" font-size="10.00">French</text>
</g>
<!-- collection&#45;&gt;french -->
<g id="edge2" class="edge">
<title>collection&#45;&gt;french</title>
<path fill="none" stroke="#2196f3" stroke-width="1.5" d="M139.01,-88C139.01,-88 164.84,-88 164.84,-88"/>
<polygon fill="#2196f3" stroke="#2196f3" stroke-width="1.5" points="164.84,-91.5 174.84,-88 164.84,-84.5 164.84,-91.5"/>
</g>
<!-- japanese -->
<g id="node4" class="node">
<title>japanese</title>
<path fill="#f5f5f5" stroke="#2196f3" d="M236,-52C236,-52 187,-52 187,-52 181,-52 175,-46 175,-40 175,-40 175,-28 175,-28 175,-22 181,-16 187,-16 187,-16 236,-16 236,-16 242,-16 248,-22 248,-28 248,-28 248,-40 248,-40 248,-46 242,-52 236,-52"/>
<text text-anchor="middle" x="211.5" y="-37" font-family="inter" font-size="10.00">Asset Table</text>
<text text-anchor="middle" x="211.5" y="-26" font-family="inter" font-size="10.00">Japanese</text>
</g>
<!-- collection&#45;&gt;japanese -->
<g id="edge3" class="edge">
<title>collection&#45;&gt;japanese</title>
<path fill="none" stroke="#2196f3" stroke-width="1.5" d="M78,-69.72C78,-54.05 78,-34 78,-34 78,-34 164.67,-34 164.67,-34"/>
<polygon fill="#2196f3" stroke="#2196f3" stroke-width="1.5" points="164.67,-37.5 174.67,-34 164.67,-30.5 164.67,-37.5"/>
</g>
<!-- shared -->
<g id="node5" class="node">
<title>shared</title>
<path fill="#f5f5f5" stroke="#2196f3" d="M379,-106C379,-106 296,-106 296,-106 290,-106 284,-100 284,-94 284,-94 284,-82 284,-82 284,-76 290,-70 296,-70 296,-70 379,-70 379,-70 385,-70 391,-76 391,-82 391,-82 391,-94 391,-94 391,-100 385,-106 379,-106"/>
<text text-anchor="middle" x="337.5" y="-85.5" font-family="inter" font-size="10.00">Shared Table Data</text>
</g>
<!-- english&#45;&gt;shared -->
<g id="edge4" class="edge">
<title>english&#45;&gt;shared</title>
<path fill="none" stroke="#2196f3" stroke-width="1.5" d="M248.09,-142C285.45,-142 338,-142 338,-142 338,-142 338,-116.28 338,-116.28"/>
<polygon fill="#2196f3" stroke="#2196f3" stroke-width="1.5" points="341.5,-116.28 338,-106.28 334.5,-116.28 341.5,-116.28"/>
</g>
<!-- french&#45;&gt;shared -->
<g id="edge5" class="edge">
<title>french&#45;&gt;shared</title>
<path fill="none" stroke="#2196f3" stroke-width="1.5" d="M248.28,-88C248.28,-88 273.58,-88 273.58,-88"/>
<polygon fill="#2196f3" stroke="#2196f3" stroke-width="1.5" points="273.58,-91.5 283.58,-88 273.58,-84.5 273.58,-91.5"/>
</g>
<!-- japanese&#45;&gt;shared -->
<g id="edge6" class="edge">
<title>japanese&#45;&gt;shared</title>
<path fill="none" stroke="#2196f3" stroke-width="1.5" d="M248.09,-34C285.45,-34 338,-34 338,-34 338,-34 338,-59.72 338,-59.72"/>
<polygon fill="#2196f3" stroke="#2196f3" stroke-width="1.5" points="334.5,-59.72 338,-69.72 341.5,-59.72 334.5,-59.72"/>
</g>
</g>
</svg>
