<?xml version="1.0" encoding="UTF-8" standalone="no"?>
<!DOCTYPE svg PUBLIC "-//W3C//DTD SVG 1.1//EN"
 "http://www.w3.org/Graphics/SVG/1.1/DTD/svg11.dtd">
<!-- Generated by graphviz version 2.48.0 (20210717.1556)
 -->
<!-- Title: FallbackOrder Pages: 1 -->
<svg width="158pt" height="404pt"
 viewBox="0.00 0.00 158.00 404.00" xmlns="http://www.w3.org/2000/svg" xmlns:xlink="http://www.w3.org/1999/xlink">
<g id="graph0" class="graph" transform="scale(1 1) rotate(0) translate(4 400)">
<title>FallbackOrder</title>
<polygon fill="transparent" stroke="transparent" points="-4,4 -4,-400 154,-400 154,4 -4,4"/>
<!-- localeA -->
<g id="node1" class="node">
<title>localeA</title>
<path fill="#daedfd" stroke="#2196f3" d="M100,-396C100,-396 68,-396 68,-396 62,-396 56,-390 56,-384 56,-384 56,-372 56,-372 56,-366 62,-360 68,-360 68,-360 100,-360 100,-360 106,-360 112,-366 112,-372 112,-372 112,-384 112,-384 112,-390 106,-396 100,-396"/>
<text text-anchor="middle" x="84" y="-375.5" font-family="inter" font-size="10.00">Locale A</text>
</g>
<!-- localeB -->
<g id="node2" class="node">
<title>localeB</title>
<path fill="#daedfd" stroke="#2196f3" d="M100,-324C100,-324 68,-324 68,-324 62,-324 56,-318 56,-312 56,-312 56,-300 56,-300 56,-294 62,-288 68,-288 68,-288 100,-288 100,-288 106,-288 112,-294 112,-300 112,-300 112,-312 112,-312 112,-318 106,-324 100,-324"/>
<text text-anchor="middle" x="84" y="-303.5" font-family="inter" font-size="10.00">Locale B</text>
</g>
<!-- localeA&#45;&gt;localeB -->
<g id="edge1" class="edge">
<title>localeA&#45;&gt;localeB</title>
<path fill="none" stroke="#2196f3" stroke-width="0.5" stroke-dasharray="5,2" d="M78.08,-359.7C77.29,-351.98 77.06,-342.71 77.4,-334.11"/>
<polygon fill="#2196f3" stroke="#2196f3" stroke-width="0.5" points="80.9,-334.32 78.1,-324.1 73.92,-333.84 80.9,-334.32"/>
</g>
<!-- localeA&#45;&gt;localeB -->
<g id="edge7" class="edge">
<title>localeA&#45;&gt;localeB</title>
<path fill="none" stroke="#eb417a" stroke-width="2.5" d="M89.92,-359.7C90.71,-351.98 90.94,-342.71 90.6,-334.11"/>
<polygon fill="#eb417a" stroke="#eb417a" stroke-width="2.5" points="94.08,-333.84 89.9,-324.1 87.1,-334.32 94.08,-333.84"/>
</g>
<!-- localeC -->
<g id="node3" class="node">
<title>localeC</title>
<path fill="#daedfd" stroke="#2196f3" d="M44,-252C44,-252 12,-252 12,-252 6,-252 0,-246 0,-240 0,-240 0,-228 0,-228 0,-222 6,-216 12,-216 12,-216 44,-216 44,-216 50,-216 56,-222 56,-228 56,-228 56,-240 56,-240 56,-246 50,-252 44,-252"/>
<text text-anchor="middle" x="28" y="-231.5" font-family="inter" font-size="10.00">Locale C</text>
</g>
<!-- localeA&#45;&gt;localeC -->
<g id="edge3" class="edge">
<title>localeA&#45;&gt;localeC</title>
<path fill="none" stroke="#2196f3" stroke-width="0.5" stroke-dasharray="5,2" d="M69.43,-359.91C61.69,-350.01 52.63,-336.97 47,-324 38.41,-304.23 33.58,-280.25 30.94,-262.16"/>
<polygon fill="#2196f3" stroke="#2196f3" stroke-width="0.5" points="34.38,-261.47 29.6,-252.01 27.44,-262.39 34.38,-261.47"/>
</g>
<!-- localeB&#45;&gt;localeC -->
<g id="edge8" class="edge">
<title>localeB&#45;&gt;localeC</title>
<path fill="none" stroke="#eb417a" stroke-width="2.5" d="M70.16,-287.7C63.51,-279.39 55.42,-269.28 48.11,-260.14"/>
<polygon fill="#eb417a" stroke="#eb417a" stroke-width="2.5" points="50.66,-257.73 41.68,-252.1 45.2,-262.1 50.66,-257.73"/>
</g>
<!-- localeD -->
<g id="node4" class="node">
<title>localeD</title>
<path fill="#daedfd" stroke="#2196f3" d="M82,-180C82,-180 50,-180 50,-180 44,-180 38,-174 38,-168 38,-168 38,-156 38,-156 38,-150 44,-144 50,-144 50,-144 82,-144 82,-144 88,-144 94,-150 94,-156 94,-156 94,-168 94,-168 94,-174 88,-180 82,-180"/>
<text text-anchor="middle" x="66" y="-159.5" font-family="inter" font-size="10.00">Locale D</text>
</g>
<!-- localeB&#45;&gt;localeD -->
<g id="edge2" class="edge">
<title>localeB&#45;&gt;localeD</title>
<path fill="none" stroke="#2196f3" stroke-width="0.5" stroke-dasharray="5,2" d="M81.83,-287.87C78.76,-263.67 73.13,-219.21 69.47,-190.39"/>
<polygon fill="#2196f3" stroke="#2196f3" stroke-width="0.5" points="72.91,-189.67 68.18,-180.19 65.96,-190.55 72.91,-189.67"/>
</g>
<!-- localeE -->
<g id="node5" class="node">
<title>localeE</title>
<path fill="#daedfd" stroke="#2196f3" d="M138,-108C138,-108 106,-108 106,-108 100,-108 94,-102 94,-96 94,-96 94,-84 94,-84 94,-78 100,-72 106,-72 106,-72 138,-72 138,-72 144,-72 150,-78 150,-84 150,-84 150,-96 150,-96 150,-102 144,-108 138,-108"/>
<text text-anchor="middle" x="122" y="-87.5" font-family="inter" font-size="10.00">Locale E</text>
</g>
<!-- localeB&#45;&gt;localeE -->
<g id="edge4" class="edge">
<title>localeB&#45;&gt;localeE</title>
<path fill="none" stroke="#2196f3" stroke-width="0.5" stroke-dasharray="5,2" d="M87.05,-287.85C93.63,-250.75 109.25,-162.81 117.19,-118.1"/>
<polygon fill="#2196f3" stroke="#2196f3" stroke-width="0.5" points="120.64,-118.69 118.94,-108.23 113.75,-117.47 120.64,-118.69"/>
</g>
<!-- localeC&#45;&gt;localeD -->
<g id="edge9" class="edge">
<title>localeC&#45;&gt;localeD</title>
<path fill="none" stroke="#eb417a" stroke-width="2.5" d="M37.39,-215.7C41.76,-207.64 47.06,-197.89 51.9,-188.98"/>
<polygon fill="#eb417a" stroke="#eb417a" stroke-width="2.5" points="55.02,-190.56 56.71,-180.1 48.87,-187.22 55.02,-190.56"/>
</g>
<!-- localeD&#45;&gt;localeE -->
<g id="edge10" class="edge">
<title>localeD&#45;&gt;localeE</title>
<path fill="none" stroke="#eb417a" stroke-width="2.5" d="M79.84,-143.7C86.49,-135.39 94.58,-125.28 101.89,-116.14"/>
<polygon fill="#eb417a" stroke="#eb417a" stroke-width="2.5" points="104.8,-118.1 108.32,-108.1 99.34,-113.73 104.8,-118.1"/>
</g>
<!-- localeF -->
<g id="node6" class="node">
<title>localeF</title>
<path fill="#daedfd" stroke="#2196f3" d="M138,-36C138,-36 106,-36 106,-36 100,-36 94,-30 94,-24 94,-24 94,-12 94,-12 94,-6 100,0 106,0 106,0 138,0 138,0 144,0 150,-6 150,-12 150,-12 150,-24 150,-24 150,-30 144,-36 138,-36"/>
<text text-anchor="middle" x="122" y="-15.5" font-family="inter" font-size="10.00">Locale F</text>
</g>
<!-- localeD&#45;&gt;localeF -->
<g id="edge5" class="edge">
<title>localeD&#45;&gt;localeF</title>
<path fill="none" stroke="#2196f3" stroke-width="0.5" stroke-dasharray="5,2" d="M67.6,-143.99C69.78,-125.61 74.67,-95.76 85,-72 89.18,-62.38 95.25,-52.71 101.26,-44.32"/>
<polygon fill="#2196f3" stroke="#2196f3" stroke-width="0.5" points="104.23,-46.19 107.43,-36.09 98.63,-41.99 104.23,-46.19"/>
</g>
<!-- localeE&#45;&gt;localeF -->
<g id="edge6" class="edge">
<title>localeE&#45;&gt;localeF</title>
<path fill="none" stroke="#2196f3" stroke-width="0.5" stroke-dasharray="5,2" d="M116.08,-71.7C115.29,-63.98 115.06,-54.71 115.4,-46.11"/>
<polygon fill="#2196f3" stroke="#2196f3" stroke-width="0.5" points="118.9,-46.32 116.1,-36.1 111.92,-45.84 118.9,-46.32"/>
</g>
<!-- localeE&#45;&gt;localeF -->
<g id="edge11" class="edge">
<title>localeE&#45;&gt;localeF</title>
<path fill="none" stroke="#eb417a" stroke-width="2.5" d="M127.92,-71.7C128.71,-63.98 128.94,-54.71 128.6,-46.11"/>
<polygon fill="#eb417a" stroke="#eb417a" stroke-width="2.5" points="132.08,-45.84 127.9,-36.1 125.1,-46.32 132.08,-45.84"/>
</g>
</g>
</svg>
