<?xml version="1.0" encoding="UTF-8" standalone="no"?>
<!DOCTYPE svg PUBLIC "-//W3C//DTD SVG 1.1//EN"
 "http://www.w3.org/Graphics/SVG/1.1/DTD/svg11.dtd">
<!-- Generated by graphviz version 2.48.0 (20210717.1556)
 -->
<!-- Title: GroupResolver Pages: 1 -->
<svg width="291pt" height="375pt"
 viewBox="0.00 0.00 290.50 375.00" xmlns="http://www.w3.org/2000/svg" xmlns:xlink="http://www.w3.org/1999/xlink">
<g id="graph0" class="graph" transform="scale(1 1) rotate(0) translate(4 371)">
<title>GroupResolver</title>
<polygon fill="transparent" stroke="transparent" points="-4,4 -4,-371 286.5,-371 286.5,4 -4,4"/>
<!-- addAsset -->
<g id="node1" class="node">
<title>addAsset</title>
<path fill="#daedfd" stroke="#2196f3" d="M137,-367C137,-367 57,-367 57,-367 51,-367 45,-361 45,-355 45,-355 45,-343 45,-343 45,-337 51,-331 57,-331 57,-331 137,-331 137,-331 143,-331 149,-337 149,-343 149,-343 149,-355 149,-355 149,-361 143,-367 137,-367"/>
<text text-anchor="middle" x="97" y="-346.5" font-family="inter" font-size="10.00">Add asset to group</text>
</g>
<!-- isUsedByAllLocales -->
<g id="node2" class="node">
<title>isUsedByAllLocales</title>
<path fill="#daedfd" stroke="#2196f3" d="M85.58,-290.32C85.58,-290.32 15.42,-267.68 15.42,-267.68 9.71,-265.84 9.71,-262.16 15.42,-260.32 15.42,-260.32 85.58,-237.68 85.58,-237.68 91.29,-235.84 102.71,-235.84 108.42,-237.68 108.42,-237.68 178.58,-260.32 178.58,-260.32 184.29,-262.16 184.29,-265.84 178.58,-267.68 178.58,-267.68 108.42,-290.32 108.42,-290.32 102.71,-292.16 91.29,-292.16 85.58,-290.32"/>
<text text-anchor="middle" x="97" y="-267" font-family="inter" font-size="10.00">Is the asset used</text>
<text text-anchor="middle" x="97" y="-256" font-family="inter" font-size="10.00">by all Locales?</text>
</g>
<!-- addAsset&#45;&gt;isUsedByAllLocales -->
<g id="edge1" class="edge">
<title>addAsset&#45;&gt;isUsedByAllLocales</title>
<path fill="none" stroke="#2196f3" stroke-width="1.5" d="M97,-330.8C97,-323.14 97,-313.78 97,-304.55"/>
<polygon fill="#2196f3" stroke="#2196f3" stroke-width="1.5" points="100.5,-304.27 97,-294.27 93.5,-304.27 100.5,-304.27"/>
</g>
<!-- isSameGroup -->
<g id="node3" class="node">
<title>isSameGroup</title>
<path fill="#daedfd" stroke="#2196f3" d="M86.42,-181.33C86.42,-181.33 10.58,-140.67 10.58,-140.67 5.29,-137.83 5.29,-132.17 10.58,-129.33 10.58,-129.33 86.42,-88.67 86.42,-88.67 91.71,-85.83 102.29,-85.83 107.58,-88.67 107.58,-88.67 183.42,-129.33 183.42,-129.33 188.71,-132.17 188.71,-137.83 183.42,-140.67 183.42,-140.67 107.58,-181.33 107.58,-181.33 102.29,-184.17 91.71,-184.17 86.42,-181.33"/>
<text text-anchor="middle" x="97" y="-149" font-family="inter" font-size="10.00">Do all of</text>
<text text-anchor="middle" x="97" y="-138" font-family="inter" font-size="10.00">the Locales that</text>
<text text-anchor="middle" x="97" y="-127" font-family="inter" font-size="10.00">use this asset use</text>
<text text-anchor="middle" x="97" y="-116" font-family="inter" font-size="10.00">the same group?</text>
</g>
<!-- isUsedByAllLocales&#45;&gt;isSameGroup -->
<g id="edge2" class="edge">
<title>isUsedByAllLocales&#45;&gt;isSameGroup</title>
<path fill="none" stroke="#2196f3" stroke-width="1.5" d="M97,-233.86C97,-222.94 97,-210.08 97,-197.33"/>
<polygon fill="#2196f3" stroke="#2196f3" stroke-width="1.5" points="100.5,-197.18 97,-187.18 93.5,-197.18 100.5,-197.18"/>
<text text-anchor="middle" x="104" y="-208" font-family="inter" font-size="10.00">No</text>
</g>
<!-- addToShared -->
<g id="node4" class="node">
<title>addToShared</title>
<path fill="#daedfd" stroke="#2196f3" d="M270.5,-36C270.5,-36 181.5,-36 181.5,-36 175.5,-36 169.5,-30 169.5,-24 169.5,-24 169.5,-12 169.5,-12 169.5,-6 175.5,0 181.5,0 181.5,0 270.5,0 270.5,0 276.5,0 282.5,-6 282.5,-12 282.5,-12 282.5,-24 282.5,-24 282.5,-30 276.5,-36 270.5,-36"/>
<text text-anchor="middle" x="226" y="-15.5" font-family="inter" font-size="10.00">Add to Shared Group</text>
</g>
<!-- isUsedByAllLocales&#45;&gt;addToShared -->
<g id="edge3" class="edge">
<title>isUsedByAllLocales&#45;&gt;addToShared</title>
<path fill="none" stroke="#2196f3" stroke-width="1.5" d="M134.56,-245.94C158.18,-233.18 187.1,-213.38 203,-187 229.44,-143.13 230.56,-81.28 228.57,-46.16"/>
<polygon fill="#2196f3" stroke="#2196f3" stroke-width="1.5" points="232.06,-45.91 227.88,-36.17 225.08,-46.39 232.06,-45.91"/>
<text text-anchor="middle" x="236.5" y="-132.5" font-family="inter" font-size="10.00">Yes</text>
</g>
<!-- isSameGroup&#45;&gt;addToShared -->
<g id="edge5" class="edge">
<title>isSameGroup&#45;&gt;addToShared</title>
<path fill="none" stroke="#2196f3" stroke-width="1.5" d="M132.93,-101.97C153.9,-83.27 179.92,-60.08 199.11,-42.98"/>
<polygon fill="#2196f3" stroke="#2196f3" stroke-width="1.5" points="201.48,-45.55 206.62,-36.28 196.82,-40.32 201.48,-45.55"/>
<text text-anchor="middle" x="191" y="-57" font-family="inter" font-size="10.00">No</text>
</g>
<!-- addToLocale -->
<g id="node5" class="node">
<title>addToLocale</title>
<path fill="#daedfd" stroke="#2196f3" d="M134,-36C134,-36 60,-36 60,-36 54,-36 48,-30 48,-24 48,-24 48,-12 48,-12 48,-6 54,0 60,0 60,0 134,0 134,0 140,0 146,-6 146,-12 146,-12 146,-24 146,-24 146,-30 140,-36 134,-36"/>
<text text-anchor="middle" x="97" y="-15.5" font-family="inter" font-size="10.00">Use Locale Group</text>
</g>
<!-- isSameGroup&#45;&gt;addToLocale -->
<g id="edge4" class="edge">
<title>isSameGroup&#45;&gt;addToLocale</title>
<path fill="none" stroke="#2196f3" stroke-width="1.5" d="M97,-82.89C97,-70.29 97,-57.28 97,-46.31"/>
<polygon fill="#2196f3" stroke="#2196f3" stroke-width="1.5" points="100.5,-46.12 97,-36.12 93.5,-46.12 100.5,-46.12"/>
<text text-anchor="middle" x="105.5" y="-57" font-family="inter" font-size="10.00">Yes</text>
</g>
</g>
</svg>
