<?xml version="1.0" encoding="UTF-8" standalone="no"?>
<!DOCTYPE svg PUBLIC "-//W3C//DTD SVG 1.1//EN"
 "http://www.w3.org/Graphics/SVG/1.1/DTD/svg11.dtd">
<!-- Generated by graphviz version 2.47.0 (20210316.0004)
 -->
<!-- Title: GroupResolver Pages: 1 -->
<svg width="305pt" height="375pt"
 viewBox="0.00 0.00 305.00 375.00" xmlns="http://www.w3.org/2000/svg" xmlns:xlink="http://www.w3.org/1999/xlink">
<g id="page0,1_graph0" class="graph" transform="scale(1 1) rotate(0) translate(4 371)">
<title>GroupResolver</title>
<polygon fill="transparent" stroke="transparent" points="-4,4 -4,-371 301,-371 301,4 -4,4"/>
<!-- addAsset -->
<g id="node1" class="node">
<title>addAsset</title>
<path fill="#daedfd" stroke="#2196f3" d="M146,-367C146,-367 62,-367 62,-367 56,-367 50,-361 50,-355 50,-355 50,-343 50,-343 50,-337 56,-331 62,-331 62,-331 146,-331 146,-331 152,-331 158,-337 158,-343 158,-343 158,-355 158,-355 158,-361 152,-367 146,-367"/>
<text text-anchor="middle" x="104" y="-346.5" font-family="inter" font-size="10.00">Add asset to group</text>
</g>
<!-- isUsedByAllLocales -->
<g id="node2" class="node">
<title>isUsedByAllLocales</title>
<path fill="#daedfd" stroke="#2196f3" d="M92.52,-290.52C92.52,-290.52 16.48,-267.48 16.48,-267.48 10.74,-265.74 10.74,-262.26 16.48,-260.52 16.48,-260.52 92.52,-237.48 92.52,-237.48 98.26,-235.74 109.74,-235.74 115.48,-237.48 115.48,-237.48 191.52,-260.52 191.52,-260.52 197.26,-262.26 197.26,-265.74 191.52,-267.48 191.52,-267.48 115.48,-290.52 115.48,-290.52 109.74,-292.26 98.26,-292.26 92.52,-290.52"/>
<text text-anchor="middle" x="104" y="-267" font-family="inter" font-size="10.00">Is the asset used</text>
<text text-anchor="middle" x="104" y="-256" font-family="inter" font-size="10.00">by all Locales?</text>
</g>
<!-- addAsset&#45;&gt;isUsedByAllLocales -->
<g id="edge1" class="edge">
<title>addAsset&#45;&gt;isUsedByAllLocales</title>
<path fill="none" stroke="black" d="M104,-330.8C104,-323.14 104,-313.78 104,-304.55"/>
<polygon fill="black" stroke="black" points="107.5,-304.27 104,-294.27 100.5,-304.27 107.5,-304.27"/>
</g>
<!-- isSameGroup -->
<g id="node3" class="node">
<title>isSameGroup</title>
<path fill="#daedfd" stroke="#2196f3" d="M93.27,-181.63C93.27,-181.63 10.73,-140.37 10.73,-140.37 5.37,-137.68 5.37,-132.32 10.73,-129.63 10.73,-129.63 93.27,-88.37 93.27,-88.37 98.63,-85.68 109.37,-85.68 114.73,-88.37 114.73,-88.37 197.27,-129.63 197.27,-129.63 202.63,-132.32 202.63,-137.68 197.27,-140.37 197.27,-140.37 114.73,-181.63 114.73,-181.63 109.37,-184.32 98.63,-184.32 93.27,-181.63"/>
<text text-anchor="middle" x="104" y="-149" font-family="inter" font-size="10.00">Do all of</text>
<text text-anchor="middle" x="104" y="-138" font-family="inter" font-size="10.00">the Locales that</text>
<text text-anchor="middle" x="104" y="-127" font-family="inter" font-size="10.00">use this asset use</text>
<text text-anchor="middle" x="104" y="-116" font-family="inter" font-size="10.00">the same group?</text>
</g>
<!-- isUsedByAllLocales&#45;&gt;isSameGroup -->
<g id="edge2" class="edge">
<title>isUsedByAllLocales&#45;&gt;isSameGroup</title>
<path fill="none" stroke="black" d="M104,-233.86C104,-222.94 104,-210.08 104,-197.33"/>
<polygon fill="black" stroke="black" points="107.5,-197.18 104,-187.18 100.5,-197.18 107.5,-197.18"/>
<text text-anchor="middle" x="111" y="-208" font-family="inter" font-size="10.00">No</text>
</g>
<!-- addToShared -->
<g id="node4" class="node">
<title>addToShared</title>
<path fill="#daedfd" stroke="#2196f3" d="M285,-36C285,-36 191,-36 191,-36 185,-36 179,-30 179,-24 179,-24 179,-12 179,-12 179,-6 185,0 191,0 191,0 285,0 285,0 291,0 297,-6 297,-12 297,-12 297,-24 297,-24 297,-30 291,-36 285,-36"/>
<text text-anchor="middle" x="238" y="-15.5" font-family="inter" font-size="10.00">Add to Shared Group</text>
</g>
<!-- isUsedByAllLocales&#45;&gt;addToShared -->
<g id="edge3" class="edge">
<title>isUsedByAllLocales&#45;&gt;addToShared</title>
<path fill="none" stroke="black" d="M144.94,-246.19C169.99,-233.69 200.34,-214.08 217,-187 243.8,-143.44 243.87,-81.48 241.17,-46.26"/>
<polygon fill="black" stroke="black" points="244.65,-45.88 240.26,-36.24 237.67,-46.51 244.65,-45.88"/>
<text text-anchor="middle" x="251" y="-132.5" font-family="inter" font-size="10.00">Yes</text>
</g>
<!-- isSameGroup&#45;&gt;addToShared -->
<g id="edge5" class="edge">
<title>isSameGroup&#45;&gt;addToShared</title>
<path fill="none" stroke="black" d="M141.68,-101.66C163.45,-82.98 190.37,-59.88 210.21,-42.85"/>
<polygon fill="black" stroke="black" points="212.67,-45.35 217.98,-36.19 208.11,-40.04 212.67,-45.35"/>
<text text-anchor="middle" x="201" y="-57" font-family="inter" font-size="10.00">No</text>
</g>
<!-- addToLocale -->
<g id="node5" class="node">
<title>addToLocale</title>
<path fill="#daedfd" stroke="#2196f3" d="M142.5,-36C142.5,-36 65.5,-36 65.5,-36 59.5,-36 53.5,-30 53.5,-24 53.5,-24 53.5,-12 53.5,-12 53.5,-6 59.5,0 65.5,0 65.5,0 142.5,0 142.5,0 148.5,0 154.5,-6 154.5,-12 154.5,-12 154.5,-24 154.5,-24 154.5,-30 148.5,-36 142.5,-36"/>
<text text-anchor="middle" x="104" y="-15.5" font-family="inter" font-size="10.00">Use Locale Group</text>
</g>
<!-- isSameGroup&#45;&gt;addToLocale -->
<g id="edge4" class="edge">
<title>isSameGroup&#45;&gt;addToLocale</title>
<path fill="none" stroke="black" d="M104,-82.89C104,-70.29 104,-57.28 104,-46.31"/>
<polygon fill="black" stroke="black" points="107.5,-46.12 104,-36.12 100.5,-46.12 107.5,-46.12"/>
<text text-anchor="middle" x="113" y="-57" font-family="inter" font-size="10.00">Yes</text>
</g>
</g>
</svg>
