<svg xmlns="http://www.w3.org/2000/svg" xmlns:xlink="http://www.w3.org/1999/xlink" xmlns:lucid="lucid" width="499.86" height="866.01"><g transform="translate(-492.23536322557425 -423.9885822722615)" lucid:page-tab-id="7ezayB~FQlW7"><path d="M789.92 452c0-4.43 3.58-8 8-8h144c4.42 0 8 3.57 8 8v101.4c0 4.42-3.58 8-8 8h-144c-4.42 0-8-3.58-8-8z" stroke="#ffcb27" stroke-width="4" fill="#fff7e1"/><use xlink:href="#a" transform="matrix(1,0,0,1,794.9197429656367,448.9885822722615) translate(21.538352272727273 51.1875)"/><use xlink:href="#b" transform="matrix(1,0,0,1,794.9197429656367,448.9885822722615) translate(61.11789772727273 51.1875)"/><use xlink:href="#c" transform="matrix(1,0,0,1,794.9197429656367,448.9885822722615) translate(112.17755681818181 51.1875)"/><use xlink:href="#d" transform="matrix(1,0,0,1,794.9197429656367,448.9885822722615) translate(50.58380681818181 72.9715909090909)"/><path d="M859.8 650.5c3.45-2.78 9.04-2.78 12.48 0l93.57 75.2c3.44 2.76 3.44 7.24 0 10l-93.57 75.2c-3.44 2.77-9.03 2.77-12.47 0l-93.56-75.2c-3.45-2.76-3.45-7.24 0-10z" stroke="#ffcb27" stroke-width="4" fill="#fff7e1"/><use xlink:href="#e" transform="matrix(1,0,0,1,765,650.4811442534326) translate(29.628737373737376 77.59722222222223)"/><use xlink:href="#f" transform="matrix(1,0,0,1,765,650.4811442534326) translate(48.61863636363637 77.59722222222223)"/><use xlink:href="#g" transform="matrix(1,0,0,1,765,650.4811442534326) translate(80.94186868686869 77.59722222222223)"/><use xlink:href="#h" transform="matrix(1,0,0,1,765,650.4811442534326) translate(131.3711616161616 77.59722222222223)"/><use xlink:href="#i" transform="matrix(1,0,0,1,765,650.4811442534326) translate(39.58454545454546 99.11237373737373)"/><use xlink:href="#j" transform="matrix(1,0,0,1,765,650.4811442534326) translate(65.53151515151515 99.11237373737373)"/><use xlink:href="#k" transform="matrix(1,0,0,1,765,650.4811442534326) translate(88.99111111111111 99.11237373737373)"/><path d="M652.66 1180c19.4 0 35.1 20.15 35.1 45s-15.7 45-35.1 45H547.34c-19.4 0-35.1-20.15-35.1-45s15.7-45 35.1-45z" stroke="#67bc6b" stroke-width="4" fill="#e9f4e9"/><use xlink:href="#l" transform="matrix(1,0,0,1,517.2353632255742,1185) translate(22.482323232323232 34.72222222222222)"/><use xlink:href="#m" transform="matrix(1,0,0,1,517.2353632255742,1185) translate(61.573232323232325 34.72222222222222)"/><use xlink:href="#n" transform="matrix(1,0,0,1,517.2353632255742,1185) translate(83.6439393939394 34.72222222222222)"/><use xlink:href="#o" transform="matrix(1,0,0,1,517.2353632255742,1185) translate(57.20454545454545 56.23737373737374)"/><path d="M602 1155.26h-4v-271h4zM759.7 732.7H612.13l-2.72.36-2.38 1-2.08 1.58-1.6 2.08-.98 2.4-.36 2.7v119.92h-4V742.57l.46-3.5 1.4-3.37 2.23-2.9 2.9-2.25 3.36-1.4 3.5-.45H759.7z" fill="#333"/><path d="M761.73 729.5l-.05 2.04.3 1.16h-2.33v-4h2.32zM600 1171.53l-4.64-14.27h9.28z" fill="#333"/><path d="M600 1178l-7.4-22.74h14.8zm-1.88-18.74l1.88 5.8 1.88-5.8z" fill="#333"/><use xlink:href="#p" transform="matrix(1,0,0,1,584.2676767676768,862.7420482951052) translate(0.005000000000000782 17.22222222222222)"/><path d="M923.87 1180c19.87 0 35.97 20.15 35.97 45s-16.1 45-35.97 45h-107.9c-19.87 0-35.97-20.15-35.97-45s16.1-45 35.97-45z" stroke="#67bc6b" stroke-width="4" fill="#e9f4e9"/><use xlink:href="#q" transform="matrix(1,0,0,1,785,1185) translate(10.22727272727272 47.22222222222222)"/><use xlink:href="#r" transform="matrix(1,0,0,1,785,1185) translate(48.05555555555554 47.22222222222222)"/><use xlink:href="#o" transform="matrix(1,0,0,1,785,1185) translate(108.18181818181817 47.22222222222222)"/><path d="M869.92 565.4v58.93" stroke="#333" stroke-width="4" fill="none"/><path d="M871.92 565.45h-4v-2.05h4z" fill="#333"/><path d="M869.92 640.6l-4.64-14.27h9.28z" stroke="#333" stroke-width="4" fill="#333"/><path d="M859.86 905.07c3.42-2.8 8.96-2.8 12.37 0l93.68 76.87c3.43 2.8 3.43 7.34 0 10.14l-93.67 76.87c-3.4 2.8-8.95 2.8-12.37 0l-93.68-76.87c-3.4-2.8-3.4-7.34 0-10.14z" stroke="#ffcb27" stroke-width="4" fill="#fff7e1"/><use xlink:href="#s" transform="matrix(1,0,0,1,765,905) translate(66.57318181818181 48.15972222222222)"/><use xlink:href="#t" transform="matrix(1,0,0,1,765,905) translate(94.9570202020202 48.15972222222222)"/><use xlink:href="#u" transform="matrix(1,0,0,1,765,905) translate(118.41661616161616 48.15972222222222)"/><use xlink:href="#v" transform="matrix(1,0,0,1,765,905) translate(33.403989898989906 69.67487373737373)"/><use xlink:href="#w" transform="matrix(1,0,0,1,765,905) translate(65.72722222222222 69.67487373737373)"/><use xlink:href="#x" transform="matrix(1,0,0,1,765,905) translate(135.14641414141414 69.67487373737373)"/><use xlink:href="#y" transform="matrix(1,0,0,1,765,905) translate(25.575707070707075 91.19002525252526)"/><use xlink:href="#z" transform="matrix(1,0,0,1,765,905) translate(60.55045454545455 91.19002525252526)"/><use xlink:href="#A" transform="matrix(1,0,0,1,765,905) translate(96.03025252525254 91.19002525252526)"/><use xlink:href="#B" transform="matrix(1,0,0,1,765,905) translate(146.45954545454546 91.19002525252526)"/><use xlink:href="#v" transform="matrix(1,0,0,1,765,905) translate(62.28025252525252 112.70517676767676)"/><use xlink:href="#C" transform="matrix(1,0,0,1,765,905) translate(94.60348484848484 112.70517676767676)"/><use xlink:href="#D" transform="matrix(1,0,0,1,765,905) translate(71.88883838383839 134.2203282828283)"/><path d="M867.47 878.34h-4v-9.6h4zm.57-31.1h-4v-30.35h4z" fill="#333"/><path d="M864.64 814.92l3.38-.07.02 2.1h-4v-2.17zM865.47 894.6l-4.63-14.26h9.27z" fill="#333"/><path d="M865.47 901.08l-7.4-22.74h14.8zm-1.88-18.74l1.87 5.8 1.88-5.8z" fill="#333"/><g><use xlink:href="#E" transform="matrix(1,0,0,1,853.7624812084326,847.2260672837667) translate(0.005000000000000782 17.22222222222222)"/></g><path d="M690.34 989h-78.2l-2.73.37-2.38 1-2.08 1.58-1.6 2.08-.98 2.4-.36 2.7v156.13h-4V998.88l.46-3.5 1.4-3.37 2.23-2.9 2.9-2.24 3.36-1.4 3.5-.45h78.48zm69.33 0h-45.34v-4h45.34z" fill="#333"/><path d="M761.7 985.7l-.06 2.1.3 1.2h-2.32v-4h2.3zM600 1171.53l-4.64-14.27h9.28z" fill="#333"/><path d="M600 1178l-7.4-22.74h14.8zm-1.88-18.74l1.88 5.8 1.88-5.8z" fill="#333"/><g><use xlink:href="#E" transform="matrix(1,0,0,1,690.3411037608464,976.2524242443465) translate(0.005000000000000782 17.22222222222222)"/></g><path d="M871.26 1155.26h-4v-19.02h4zm-3.2-40.54h-4v-39.76h4z" fill="#333"/><path d="M864.8 1073l3.25-.1v2.1h-4v-2.17zM869.26 1171.53l-4.63-14.27h9.27z" fill="#333"/><path d="M869.26 1178l-7.38-22.74h14.77zm-1.88-18.74l1.88 5.8 1.9-5.8z" fill="#333"/><g><use xlink:href="#p" transform="matrix(1,0,0,1,851.9239771401752,1114.7239655897254) translate(0.005000000000000782 17.22222222222222)"/></g><defs><path fill="#333" d="M332 0H72l752-2048h256L1832 0h-260L960-1724h-16zm96-800h1048v220H428v-220" id="F"/><path fill="#333" d="M1244-236C1160-98 1040 38 796 32c-286-7-469-163-569-374-107-225-108-616 0-842 101-211 285-365 573-372 244-6 359 127 444 264h20v-756h236V0h-228v-236h-28zm-664-22c123 99 362 103 488 4 128-101 200-285 200-514 0-227-69-406-198-504-125-96-370-93-492 4-126 100-198 279-198 500 0 223 74 408 200 510" id="G"/><g id="a"><use transform="matrix(0.006392045454545455,0,0,0.006392045454545455,0,0)" xlink:href="#F"/><use transform="matrix(0.006392045454545455,0,0,0.006392045454545455,12.170454545454547,0)" xlink:href="#G"/><use transform="matrix(0.006392045454545455,0,0,0.006392045454545455,23.34375,0)" xlink:href="#G"/></g><path fill="#333" d="M1124-208C1047-67 898 39 668 36c-306-9-520-163-524-472-5-429 452-428 824-480 100-15 168-19 168-120 0-203-114-312-324-312-206 0-337 110-400 232l-224-80c96-234 308-360 616-360 350 0 568 167 568 544V0h-236v-208h-12zM380-424c-2 171 150 249 324 248 185 3 312-84 382-197 66-107 46-242 50-399-190 112-562 41-708 206-32 35-48 82-48 142" id="H"/><path fill="#333" d="M728-176c184 3 360-85 360-240 0-133-100-185-228-216l-256-60c-141-33-244-86-310-156-120-119-130-353-24-494 95-127 270-214 490-214 302 0 467 146 544 364l-212 60c-51-127-146-220-332-220-162 0-326 82-328 228 0 59 21 105 64 139 86 72 291 106 428 141s240 84 307 152c125 117 132 357 25 500C1155-57 969 34 732 32c-311 1-533-140-584-400l224-56c41 161 158 245 356 248" id="I"/><path fill="#333" d="M1472-356c-81 240-294 384-612 388-314 0-521-155-630-374-113-227-112-601 0-830 106-217 302-384 606-384 475 0 684 339 660 868H312v-204h944c-7-269-152-447-420-452-198-4-333 114-401 250-58 110-57 222-55 374 4 329 162 540 480 540 202 0 327-90 384-240" id="J"/><path fill="#333" d="M884-1536v200H88v-200h796zM912-8C806 31 647 29 540-23 419-82 320-195 320-376v-1528h236v1464c-3 157 61 231 204 232 42 1 74-6 104-12" id="K"/><g id="b"><use transform="matrix(0.006392045454545455,0,0,0.006392045454545455,0,0)" xlink:href="#H"/><use transform="matrix(0.006392045454545455,0,0,0.006392045454545455,10.150568181818182,0)" xlink:href="#I"/><use transform="matrix(0.006392045454545455,0,0,0.006392045454545455,19.559659090909093,0)" xlink:href="#I"/><use transform="matrix(0.006392045454545455,0,0,0.006392045454545455,28.968750000000004,0)" xlink:href="#J"/><use transform="matrix(0.006392045454545455,0,0,0.006392045454545455,39.45170454545455,0)" xlink:href="#K"/></g><path fill="#333" d="M1204-67C1004 62 676 62 476-67S143-436 144-760c-1-326 132-568 332-697s528-129 728 0 333 371 332 697c1 324-133 564-332 693zM580-261c128 104 389 100 520 0 184-140 253-512 151-786-62-165-189-298-411-297-325 7-460 262-460 584 0 217 75 397 200 499" id="L"/><g id="c"><use transform="matrix(0.006392045454545455,0,0,0.006392045454545455,0,0)" xlink:href="#K"/><use transform="matrix(0.006392045454545455,0,0,0.006392045454545455,6.545454545454546,0)" xlink:href="#L"/></g><path fill="#333" d="M800-1556c245-6 363 127 448 264h24v-244h228V44c-3 395-276 558-664 564-313 5-510-121-628-308l188-132c90 123 207 236 440 232 245-5 428-117 428-372v-312h-20c-83 138-204 266-448 260-278-7-463-145-566-344-111-214-110-600-3-820 101-208 286-361 573-368zM380-780c0 315 135 544 448 544 312 0 440-225 440-544s-127-564-440-564c-315 0-448 249-448 564" id="M"/><path fill="#333" d="M840-1332c-228 7-388 135-388 360V0H216v-1536h228v232h16c48-143 212-258 400-256 29 0 98 1 124 4v240c-30-6-100-18-144-16" id="N"/><path fill="#333" d="M452-576c-6 211 135 376 336 368 233-10 396-164 396-420v-908h236V0h-236v-260h-16C1095-108 943 25 712 20 377 9 216-206 216-560v-976h236v960" id="O"/><path fill="#333" d="M920 32C676 38 556-97 472-236h-20v812H216v-2112h228v244h28c84-136 200-270 444-264 288 7 472 161 573 372 108 226 107 617 0 842-100 211-282 367-569 374zM498-1070c-67 166-66 442 1 608 62 160 181 282 389 282 319 0 448-265 448-588 0-322-129-576-448-576-208 0-329 116-390 274" id="P"/><g id="d"><use transform="matrix(0.006392045454545455,0,0,0.006392045454545455,0,0)" xlink:href="#M"/><use transform="matrix(0.006392045454545455,0,0,0.006392045454545455,10.96875,0)" xlink:href="#N"/><use transform="matrix(0.006392045454545455,0,0,0.006392045454545455,17.667613636363637,0)" xlink:href="#L"/><use transform="matrix(0.006392045454545455,0,0,0.006392045454545455,28.40625,0)" xlink:href="#O"/><use transform="matrix(0.006392045454545455,0,0,0.006392045454545455,38.86363636363637,0)" xlink:href="#P"/></g><path fill="#333" d="M496-2048V0H248v-2048h248" id="Q"/><g id="e"><use transform="matrix(0.006313131313131313,0,0,0.006313131313131313,0,0)" xlink:href="#Q"/><use transform="matrix(0.006313131313131313,0,0,0.006313131313131313,4.696969696969697,0)" xlink:href="#I"/></g><path fill="#333" d="M856-1344c-254 4-404 159-404 420V0H216v-2048h236v752h20c75-159 213-263 452-260 352 7 524 215 524 580V0h-236v-960c3-234-128-388-356-384" id="R"/><g id="f"><use transform="matrix(0.006313131313131313,0,0,0.006313131313131313,0,0)" xlink:href="#K"/><use transform="matrix(0.006313131313131313,0,0,0.006313131313131313,6.4646464646464645,0)" xlink:href="#R"/><use transform="matrix(0.006313131313131313,0,0,0.006313131313131313,16.96969696969697,0)" xlink:href="#J"/></g><g id="g"><use transform="matrix(0.006313131313131313,0,0,0.006313131313131313,0,0)" xlink:href="#H"/><use transform="matrix(0.006313131313131313,0,0,0.006313131313131313,10.025252525252524,0)" xlink:href="#I"/><use transform="matrix(0.006313131313131313,0,0,0.006313131313131313,19.318181818181817,0)" xlink:href="#I"/><use transform="matrix(0.006313131313131313,0,0,0.006313131313131313,28.611111111111104,0)" xlink:href="#J"/><use transform="matrix(0.006313131313131313,0,0,0.006313131313131313,38.964646464646464,0)" xlink:href="#K"/></g><g id="h"><use transform="matrix(0.006313131313131313,0,0,0.006313131313131313,0,0)" xlink:href="#O"/><use transform="matrix(0.006313131313131313,0,0,0.006313131313131313,10.328282828282829,0)" xlink:href="#I"/><use transform="matrix(0.006313131313131313,0,0,0.006313131313131313,19.62121212121212,0)" xlink:href="#J"/><use transform="matrix(0.006313131313131313,0,0,0.006313131313131313,29.974747474747474,0)" xlink:href="#G"/></g><path fill="#333" d="M952 32C708 38 588-97 504-236h-28V0H248v-2048h236v756h20c84-136 200-270 444-264 288 7 472 161 573 372 108 226 107 617 0 842-100 211-282 367-569 374zM530-1070c-67 166-66 442 1 608 62 160 181 282 389 282 319 0 448-265 448-588 0-322-129-576-448-576-208 0-329 116-390 274" id="S"/><path fill="#333" d="M820 224c-81 228-252 387-559 338-31-6-53-12-65-18l60-208c86 22 158 21 215-2s107-91 149-206L664 8 96-1536h256L776-312h16l424-1224 258 4" id="T"/><g id="i"><use transform="matrix(0.006313131313131313,0,0,0.006313131313131313,0,0)" xlink:href="#S"/><use transform="matrix(0.006313131313131313,0,0,0.006313131313131313,11.035353535353535,0)" xlink:href="#T"/></g><path fill="#333" d="M452-2048V0H216v-2048h236" id="U"/><g id="j"><use transform="matrix(0.006313131313131313,0,0,0.006313131313131313,0,0)" xlink:href="#H"/><use transform="matrix(0.006313131313131313,0,0,0.006313131313131313,10.025252525252524,0)" xlink:href="#U"/><use transform="matrix(0.006313131313131313,0,0,0.006313131313131313,14.242424242424242,0)" xlink:href="#U"/></g><path fill="#333" d="M248 0v-2048h248v1828h952V0H248" id="V"/><path fill="#333" d="M1444-448c-53 291-263 480-604 480-309 0-507-165-612-383-110-230-110-595 2-823 106-216 303-382 606-382 338 0 559 184 608 480h-236c-39-143-171-276-368-268-314 13-455 250-460 576-1 235 79 419 216 515 69 49 151 73 244 73 201-4 323-106 368-268h236" id="W"/><path fill="#333" d="M708-1868c-205 0-331 124-344 332H112c22-340 246-533 596-540 242-5 416 108 508 262 77 128 94 324 38 477-48 126-135 215-246 283-162 97-247 219-244 478H524c-7-346 107-504 316-628 113-67 208-168 208-344 0-202-140-320-340-320zM832-164C826-59 758 11 652 16c-95 3-180-85-180-180s85-180 180-180 183 85 180 180" id="X"/><g id="k"><use transform="matrix(0.006313131313131313,0,0,0.006313131313131313,0,0)" xlink:href="#V"/><use transform="matrix(0.006313131313131313,0,0,0.006313131313131313,10,0)" xlink:href="#L"/><use transform="matrix(0.006313131313131313,0,0,0.006313131313131313,20.606060606060606,0)" xlink:href="#W"/><use transform="matrix(0.006313131313131313,0,0,0.006313131313131313,30.53030303030303,0)" xlink:href="#H"/><use transform="matrix(0.006313131313131313,0,0,0.006313131313131313,40.55555555555556,0)" xlink:href="#U"/><use transform="matrix(0.006313131313131313,0,0,0.006313131313131313,44.77272727272727,0)" xlink:href="#J"/><use transform="matrix(0.006313131313131313,0,0,0.006313131313131313,55.12626262626262,0)" xlink:href="#I"/><use transform="matrix(0.006313131313131313,0,0,0.006313131313131313,64.41919191919192,0)" xlink:href="#X"/></g><g id="l"><use transform="matrix(0.006313131313131313,0,0,0.006313131313131313,0,0)" xlink:href="#F"/><use transform="matrix(0.006313131313131313,0,0,0.006313131313131313,12.02020202020202,0)" xlink:href="#G"/><use transform="matrix(0.006313131313131313,0,0,0.006313131313131313,23.055555555555557,0)" xlink:href="#G"/></g><g id="m"><use transform="matrix(0.006313131313131313,0,0,0.006313131313131313,0,0)" xlink:href="#K"/><use transform="matrix(0.006313131313131313,0,0,0.006313131313131313,6.4646464646464645,0)" xlink:href="#L"/></g><path fill="#333" d="M416-528c25 237 225 334 480 340 191 1 347-70 434-176 77-95 92-271 9-362-134-144-391-180-603-246-159-49-287-112-380-197s-140-197-140-335c2-255 159-414 346-500 201-93 507-96 706-2 181 82 329 236 340 470h-240c-21-207-226-322-460-320-179-1-321 63-396 165-66 83-79 226-16 315 149 209 491 208 742 314 205 86 398 215 398 506 0 256-147 420-338 513-201 98-573 103-782 8-194-88-336-247-356-493h256" id="Y"/><g id="n"><use transform="matrix(0.006313131313131313,0,0,0.006313131313131313,0,0)" xlink:href="#Y"/><use transform="matrix(0.006313131313131313,0,0,0.006313131313131313,11.338383838383837,0)" xlink:href="#R"/><use transform="matrix(0.006313131313131313,0,0,0.006313131313131313,21.843434343434343,0)" xlink:href="#H"/><use transform="matrix(0.006313131313131313,0,0,0.006313131313131313,31.86868686868686,0)" xlink:href="#N"/><use transform="matrix(0.006313131313131313,0,0,0.006313131313131313,38.484848484848484,0)" xlink:href="#J"/><use transform="matrix(0.006313131313131313,0,0,0.006313131313131313,48.838383838383834,0)" xlink:href="#G"/></g><path fill="#333" d="M1648-1408c-87-251-254-436-584-436-281 0-464 160-568 371-113 229-113 670 1 898 107 214 293 371 583 371 374 0 589-237 596-616l76 16h-616v-220h780c6 268-5 484-108 660-134 229-381 391-728 392-397-3-657-209-798-492-128-258-150-699-48-998 83-250 244-440 469-541 190-88 455-97 663-25 278 99 475 307 538 620h-256" id="Z"/><g id="o"><use transform="matrix(0.006313131313131313,0,0,0.006313131313131313,0,0)" xlink:href="#Z"/><use transform="matrix(0.006313131313131313,0,0,0.006313131313131313,13.207070707070708,0)" xlink:href="#N"/><use transform="matrix(0.006313131313131313,0,0,0.006313131313131313,19.823232323232325,0)" xlink:href="#L"/><use transform="matrix(0.006313131313131313,0,0,0.006313131313131313,30.429292929292927,0)" xlink:href="#O"/><use transform="matrix(0.006313131313131313,0,0,0.006313131313131313,40.75757575757576,0)" xlink:href="#P"/></g><path fill="#333" d="M72-2048h284l568 956h24l568-956h284L1060-844V0H812v-844" id="aa"/><g id="p"><use transform="matrix(0.006313131313131313,0,0,0.006313131313131313,0,0)" xlink:href="#aa"/><use transform="matrix(0.006313131313131313,0,0,0.006313131313131313,11.818181818181818,0)" xlink:href="#J"/><use transform="matrix(0.006313131313131313,0,0,0.006313131313131313,22.17171717171717,0)" xlink:href="#I"/></g><path fill="#333" d="M1592-2048h248v1356c-3 308-162 519-376 634-228 122-613 122-840 0-214-115-376-326-376-634v-1356h248v1336c11 327 213 516 548 516s548-188 548-516v-1336" id="ab"/><g id="q"><use transform="matrix(0.006313131313131313,0,0,0.006313131313131313,0,0)" xlink:href="#ab"/><use transform="matrix(0.006313131313131313,0,0,0.006313131313131313,13.181818181818182,0)" xlink:href="#I"/><use transform="matrix(0.006313131313131313,0,0,0.006313131313131313,22.474747474747474,0)" xlink:href="#J"/></g><g id="r"><use transform="matrix(0.006313131313131313,0,0,0.006313131313131313,0,0)" xlink:href="#V"/><use transform="matrix(0.006313131313131313,0,0,0.006313131313131313,10,0)" xlink:href="#L"/><use transform="matrix(0.006313131313131313,0,0,0.006313131313131313,20.606060606060606,0)" xlink:href="#W"/><use transform="matrix(0.006313131313131313,0,0,0.006313131313131313,30.53030303030303,0)" xlink:href="#H"/><use transform="matrix(0.006313131313131313,0,0,0.006313131313131313,40.55555555555556,0)" xlink:href="#U"/><use transform="matrix(0.006313131313131313,0,0,0.006313131313131313,44.77272727272727,0)" xlink:href="#J"/></g><path fill="#1d1c1d" d="M880 0H248v-2048h660c417 0 690 188 835 474 147 290 146 807-1 1096C1593-185 1311 0 880 0zm736-1028c0-494-230-796-724-800H496v1608h368c511-2 752-300 752-808" id="ac"/><path fill="#1d1c1d" d="M1204-67C1004 62 676 62 476-67S143-436 144-760c-1-326 132-568 332-697s528-129 728 0 333 371 332 697c1 324-133 564-332 693zM580-261c128 104 389 100 520 0 184-140 253-512 151-786-62-165-189-298-411-297-325 7-460 262-460 584 0 217 75 397 200 499" id="ad"/><g id="s"><use transform="matrix(0.006313131313131313,0,0,0.006313131313131313,0,0)" xlink:href="#ac"/><use transform="matrix(0.006313131313131313,0,0,0.006313131313131313,12.777777777777777,0)" xlink:href="#ad"/></g><path fill="#1d1c1d" d="M1124-208C1047-67 898 39 668 36c-306-9-520-163-524-472-5-429 452-428 824-480 100-15 168-19 168-120 0-203-114-312-324-312-206 0-337 110-400 232l-224-80c96-234 308-360 616-360 350 0 568 167 568 544V0h-236v-208h-12zM380-424c-2 171 150 249 324 248 185 3 312-84 382-197 66-107 46-242 50-399-190 112-562 41-708 206-32 35-48 82-48 142" id="ae"/><path fill="#1d1c1d" d="M452-2048V0H216v-2048h236" id="af"/><g id="t"><use transform="matrix(0.006313131313131313,0,0,0.006313131313131313,0,0)" xlink:href="#ae"/><use transform="matrix(0.006313131313131313,0,0,0.006313131313131313,10.025252525252524,0)" xlink:href="#af"/><use transform="matrix(0.006313131313131313,0,0,0.006313131313131313,14.242424242424242,0)" xlink:href="#af"/></g><path fill="#1d1c1d" d="M900-1536v200H72v-200h828zm-124-388c-156-1-220 79-220 232V0H320v-1748c0-304 265-437 574-382 37 9 64 18 82 26l-68 204c-35-11-76-26-132-24" id="ag"/><g id="u"><use transform="matrix(0.006313131313131313,0,0,0.006313131313131313,0,0)" xlink:href="#ad"/><use transform="matrix(0.006313131313131313,0,0,0.006313131313131313,10.606060606060606,0)" xlink:href="#ag"/></g><path fill="#1d1c1d" d="M884-1536v200H88v-200h796zM912-8C806 31 647 29 540-23 419-82 320-195 320-376v-1528h236v1464c-3 157 61 231 204 232 42 1 74-6 104-12" id="ah"/><path fill="#1d1c1d" d="M856-1344c-254 4-404 159-404 420V0H216v-2048h236v752h20c75-159 213-263 452-260 352 7 524 215 524 580V0h-236v-960c3-234-128-388-356-384" id="ai"/><path fill="#1d1c1d" d="M1472-356c-81 240-294 384-612 388-314 0-521-155-630-374-113-227-112-601 0-830 106-217 302-384 606-384 475 0 684 339 660 868H312v-204h944c-7-269-152-447-420-452-198-4-333 114-401 250-58 110-57 222-55 374 4 329 162 540 480 540 202 0 327-90 384-240" id="aj"/><g id="v"><use transform="matrix(0.006313131313131313,0,0,0.006313131313131313,0,0)" xlink:href="#ah"/><use transform="matrix(0.006313131313131313,0,0,0.006313131313131313,6.4646464646464645,0)" xlink:href="#ai"/><use transform="matrix(0.006313131313131313,0,0,0.006313131313131313,16.96969696969697,0)" xlink:href="#aj"/></g><path fill="#1d1c1d" d="M248 0v-2048h248v1828h952V0H248" id="ak"/><path fill="#1d1c1d" d="M1444-448c-53 291-263 480-604 480-309 0-507-165-612-383-110-230-110-595 2-823 106-216 303-382 606-382 338 0 559 184 608 480h-236c-39-143-171-276-368-268-314 13-455 250-460 576-1 235 79 419 216 515 69 49 151 73 244 73 201-4 323-106 368-268h236" id="al"/><path fill="#1d1c1d" d="M728-176c184 3 360-85 360-240 0-133-100-185-228-216l-256-60c-141-33-244-86-310-156-120-119-130-353-24-494 95-127 270-214 490-214 302 0 467 146 544 364l-212 60c-51-127-146-220-332-220-162 0-326 82-328 228 0 59 21 105 64 139 86 72 291 106 428 141s240 84 307 152c125 117 132 357 25 500C1155-57 969 34 732 32c-311 1-533-140-584-400l224-56c41 161 158 245 356 248" id="am"/><g id="w"><use transform="matrix(0.006313131313131313,0,0,0.006313131313131313,0,0)" xlink:href="#ak"/><use transform="matrix(0.006313131313131313,0,0,0.006313131313131313,10,0)" xlink:href="#ad"/><use transform="matrix(0.006313131313131313,0,0,0.006313131313131313,20.606060606060606,0)" xlink:href="#al"/><use transform="matrix(0.006313131313131313,0,0,0.006313131313131313,30.53030303030303,0)" xlink:href="#ae"/><use transform="matrix(0.006313131313131313,0,0,0.006313131313131313,40.55555555555556,0)" xlink:href="#af"/><use transform="matrix(0.006313131313131313,0,0,0.006313131313131313,44.77272727272727,0)" xlink:href="#aj"/><use transform="matrix(0.006313131313131313,0,0,0.006313131313131313,55.12626262626262,0)" xlink:href="#am"/></g><g id="x"><use transform="matrix(0.006313131313131313,0,0,0.006313131313131313,0,0)" xlink:href="#ah"/><use transform="matrix(0.006313131313131313,0,0,0.006313131313131313,6.4646464646464645,0)" xlink:href="#ai"/><use transform="matrix(0.006313131313131313,0,0,0.006313131313131313,16.96969696969697,0)" xlink:href="#ae"/><use transform="matrix(0.006313131313131313,0,0,0.006313131313131313,26.994949494949495,0)" xlink:href="#ah"/></g><path fill="#1d1c1d" d="M452-576c-6 211 135 376 336 368 233-10 396-164 396-420v-908h236V0h-236v-260h-16C1095-108 943 25 712 20 377 9 216-206 216-560v-976h236v960" id="an"/><g id="y"><use transform="matrix(0.006313131313131313,0,0,0.006313131313131313,0,0)" xlink:href="#an"/><use transform="matrix(0.006313131313131313,0,0,0.006313131313131313,10.328282828282829,0)" xlink:href="#am"/><use transform="matrix(0.006313131313131313,0,0,0.006313131313131313,19.62121212121212,0)" xlink:href="#aj"/></g><path fill="#1d1c1d" d="M216 0v-1536h236V0H216zm288-1952c0 86-81 160-168 160s-168-74-168-160 81-160 168-160 168 74 168 160" id="ao"/><g id="z"><use transform="matrix(0.006313131313131313,0,0,0.006313131313131313,0,0)" xlink:href="#ah"/><use transform="matrix(0.006313131313131313,0,0,0.006313131313131313,6.4646464646464645,0)" xlink:href="#ai"/><use transform="matrix(0.006313131313131313,0,0,0.006313131313131313,16.96969696969697,0)" xlink:href="#ao"/><use transform="matrix(0.006313131313131313,0,0,0.006313131313131313,21.186868686868685,0)" xlink:href="#am"/></g><g id="A"><use transform="matrix(0.006313131313131313,0,0,0.006313131313131313,0,0)" xlink:href="#ae"/><use transform="matrix(0.006313131313131313,0,0,0.006313131313131313,10.025252525252524,0)" xlink:href="#am"/><use transform="matrix(0.006313131313131313,0,0,0.006313131313131313,19.318181818181817,0)" xlink:href="#am"/><use transform="matrix(0.006313131313131313,0,0,0.006313131313131313,28.611111111111104,0)" xlink:href="#aj"/><use transform="matrix(0.006313131313131313,0,0,0.006313131313131313,38.964646464646464,0)" xlink:href="#ah"/></g><g id="B"><use transform="matrix(0.006313131313131313,0,0,0.006313131313131313,0,0)" xlink:href="#an"/><use transform="matrix(0.006313131313131313,0,0,0.006313131313131313,10.328282828282829,0)" xlink:href="#am"/><use transform="matrix(0.006313131313131313,0,0,0.006313131313131313,19.62121212121212,0)" xlink:href="#aj"/></g><path fill="#1d1c1d" d="M1104-1052c4-173-131-299-304-292-212 9-348 163-348 384V0H216v-1536h228v240h20c59-155 204-260 412-260 216 0 340 107 412 260h16c75-152 235-262 460-260 300 6 468 196 468 528V0h-236v-1028c9-209-128-311-312-316-208-6-341 144-340 344V0h-240v-1052" id="ap"/><g id="C"><use transform="matrix(0.006313131313131313,0,0,0.006313131313131313,0,0)" xlink:href="#am"/><use transform="matrix(0.006313131313131313,0,0,0.006313131313131313,9.292929292929292,0)" xlink:href="#ae"/><use transform="matrix(0.006313131313131313,0,0,0.006313131313131313,19.318181818181817,0)" xlink:href="#ap"/><use transform="matrix(0.006313131313131313,0,0,0.006313131313131313,34.77272727272727,0)" xlink:href="#aj"/></g><path fill="#1d1c1d" d="M800-1556c245-6 363 127 448 264h24v-244h228V44c-3 395-276 558-664 564-313 5-510-121-628-308l188-132c90 123 207 236 440 232 245-5 428-117 428-372v-312h-20c-83 138-204 266-448 260-278-7-463-145-566-344-111-214-110-600-3-820 101-208 286-361 573-368zM380-780c0 315 135 544 448 544 312 0 440-225 440-544s-127-564-440-564c-315 0-448 249-448 564" id="aq"/><path fill="#1d1c1d" d="M840-1332c-228 7-388 135-388 360V0H216v-1536h228v232h16c48-143 212-258 400-256 29 0 98 1 124 4v240c-30-6-100-18-144-16" id="ar"/><path fill="#1d1c1d" d="M920 32C676 38 556-97 472-236h-20v812H216v-2112h228v244h28c84-136 200-270 444-264 288 7 472 161 573 372 108 226 107 617 0 842-100 211-282 367-569 374zM498-1070c-67 166-66 442 1 608 62 160 181 282 389 282 319 0 448-265 448-588 0-322-129-576-448-576-208 0-329 116-390 274" id="as"/><path fill="#1d1c1d" d="M708-1868c-205 0-331 124-344 332H112c22-340 246-533 596-540 242-5 416 108 508 262 77 128 94 324 38 477-48 126-135 215-246 283-162 97-247 219-244 478H524c-7-346 107-504 316-628 113-67 208-168 208-344 0-202-140-320-340-320zM832-164C826-59 758 11 652 16c-95 3-180-85-180-180s85-180 180-180 183 85 180 180" id="at"/><g id="D"><use transform="matrix(0.006313131313131313,0,0,0.006313131313131313,0,0)" xlink:href="#aq"/><use transform="matrix(0.006313131313131313,0,0,0.006313131313131313,10.833333333333334,0)" xlink:href="#ar"/><use transform="matrix(0.006313131313131313,0,0,0.006313131313131313,17.449494949494948,0)" xlink:href="#ad"/><use transform="matrix(0.006313131313131313,0,0,0.006313131313131313,28.055555555555554,0)" xlink:href="#an"/><use transform="matrix(0.006313131313131313,0,0,0.006313131313131313,38.38383838383838,0)" xlink:href="#as"/><use transform="matrix(0.006313131313131313,0,0,0.006313131313131313,49.217171717171716,0)" xlink:href="#at"/></g><path fill="#333" d="M1872-2048V0h-240L516-1608h-20V0H248v-2048h240L1608-436h20v-1612h244" id="au"/><g id="E"><use transform="matrix(0.006313131313131313,0,0,0.006313131313131313,0,0)" xlink:href="#au"/><use transform="matrix(0.006313131313131313,0,0,0.006313131313131313,13.383838383838384,0)" xlink:href="#L"/></g></defs></g></svg>