<?xml version="1.0" encoding="UTF-8" standalone="no"?>
<!DOCTYPE svg PUBLIC "-//W3C//DTD SVG 1.1//EN"
 "http://www.w3.org/Graphics/SVG/1.1/DTD/svg11.dtd">
<!-- Generated by graphviz version 2.48.0 (20210717.1556)
 -->
<!-- Title: PluralFormatter Pages: 1 -->
<svg width="234pt" height="160pt"
 viewBox="0.00 0.00 233.50 160.00" xmlns="http://www.w3.org/2000/svg" xmlns:xlink="http://www.w3.org/1999/xlink">
<g id="graph0" class="graph" transform="scale(1 1) rotate(0) translate(4 156)">
<title>PluralFormatter</title>
<polygon fill="transparent" stroke="transparent" points="-4,4 -4,-156 229.5,-156 229.5,4 -4,4"/>
<!-- smartString -->
<g id="node1" class="node">
<title>smartString</title>
<text text-anchor="start" x="10" y="-73" font-family="inter" font-size="10.00">{</text>
<text text-anchor="start" x="16" y="-73" font-family="inter" font-size="10.00" fill="#f37021">value</text>
<text text-anchor="start" x="43" y="-73" font-family="inter" font-size="10.00">:</text>
<text text-anchor="start" x="48" y="-73" font-family="inter" font-size="10.00" fill="#67bc6b">plural</text>
<text text-anchor="start" x="75" y="-73" font-family="inter" font-size="10.00">:</text>
<text text-anchor="start" x="80" y="-73" font-family="inter" font-size="10.00" fill="#765ba7">zero</text>
<text text-anchor="start" x="103" y="-73" font-family="inter" font-size="10.00">|</text>
<text text-anchor="start" x="109" y="-73" font-family="inter" font-size="10.00" fill="#765ba7">one</text>
<text text-anchor="start" x="129" y="-73" font-family="inter" font-size="10.00">|</text>
<text text-anchor="start" x="135" y="-73" font-family="inter" font-size="10.00" fill="#765ba7">two</text>
<text text-anchor="start" x="155" y="-73" font-family="inter" font-size="10.00">|</text>
<text text-anchor="start" x="161" y="-73" font-family="inter" font-size="10.00" fill="#765ba7">few</text>
<text text-anchor="start" x="180" y="-73" font-family="inter" font-size="10.00">|</text>
<text text-anchor="start" x="186" y="-73" font-family="inter" font-size="10.00" fill="#765ba7">many</text>
<text text-anchor="start" x="213" y="-73" font-family="inter" font-size="10.00">}</text>
</g>
<!-- selector -->
<g id="node2" class="node">
<title>selector</title>
<text text-anchor="middle" x="28" y="-138.5" font-family="inter" font-size="10.00" fill="#f37021">Any Number</text>
</g>
<!-- selector&#45;&gt;smartString -->
<g id="edge1" class="edge">
<title>selector&#45;&gt;smartString:selector1</title>
<path fill="none" stroke="#2196f3" stroke-width="1.5" d="M28,-135.27C28,-127.18 28,-109.95 28,-93.24"/>
<polygon fill="#2196f3" stroke="#2196f3" stroke-width="1.5" points="31.5,-93 28,-83 24.5,-93 31.5,-93"/>
</g>
<!-- formatterName -->
<g id="node3" class="node">
<title>formatterName</title>
<text text-anchor="middle" x="60" y="-14" font-family="inter" font-size="10.00" fill="#67bc6b">Formatter Name</text>
<text text-anchor="middle" x="60" y="-3" font-family="inter" font-size="10.00" fill="#67bc6b">&quot;plural&quot; or &quot;p&quot; or implicit</text>
</g>
<!-- formatterName&#45;&gt;smartString -->
<g id="edge2" class="edge">
<title>formatterName&#45;&gt;smartString:name</title>
<path fill="none" stroke="#2196f3" stroke-width="1.5" d="M60,-22.32C60,-31.19 60,-44.57 60,-57.66"/>
<polygon fill="#2196f3" stroke="#2196f3" stroke-width="1.5" points="56.5,-58 60,-68 63.5,-58 56.5,-58"/>
</g>
<!-- plurals -->
<g id="node4" class="node">
<title>plurals</title>
<text text-anchor="middle" x="151" y="-144" font-family="inter" font-size="10.00" fill="#765ba7">Plural Arguments.</text>
<text text-anchor="middle" x="151" y="-133" font-family="inter" font-size="10.00" fill="#765ba7">Smallest&#45;to&#45;highest order</text>
</g>
<!-- plurals&#45;&gt;smartString -->
<g id="edge3" class="edge">
<title>plurals&#45;&gt;smartString:plural1</title>
<path fill="none" stroke="#2196f3" stroke-width="1.5" d="M128.29,-129.96C113.79,-122.11 96.77,-109.76 91.58,-93.22"/>
<polygon fill="#2196f3" stroke="#2196f3" stroke-width="1.5" points="94.99,-92.35 90,-83 88.07,-93.42 94.99,-92.35"/>
</g>
<!-- plurals&#45;&gt;smartString -->
<g id="edge4" class="edge">
<title>plurals&#45;&gt;smartString:plural2</title>
<path fill="none" stroke="#2196f3" stroke-width="1.5" d="M140.56,-129.68C132.7,-120.99 122.72,-107.68 119.25,-93.19"/>
<polygon fill="#2196f3" stroke="#2196f3" stroke-width="1.5" points="122.7,-92.5 118,-83 115.75,-93.35 122.7,-92.5"/>
</g>
<!-- plurals&#45;&gt;smartString -->
<g id="edge5" class="edge">
<title>plurals&#45;&gt;smartString:plural3</title>
<path fill="none" stroke="#2196f3" stroke-width="1.5" d="M156.6,-129.83C161.11,-120.87 167.04,-107.08 169.18,-93.13"/>
<polygon fill="#2196f3" stroke="#2196f3" stroke-width="1.5" points="172.68,-93.25 170,-83 165.71,-92.69 172.68,-93.25"/>
</g>
<!-- plurals&#45;&gt;smartString -->
<g id="edge6" class="edge">
<title>plurals&#45;&gt;smartString:plural4</title>
<path fill="none" stroke="#2196f3" stroke-width="1.5" d="M167.25,-129.94C178.78,-121.65 192.99,-108.74 197.53,-93.09"/>
<polygon fill="#2196f3" stroke="#2196f3" stroke-width="1.5" points="201.02,-93.4 199,-83 194.09,-92.39 201.02,-93.4"/>
</g>
</g>
</svg>
