<?xml version="1.0" encoding="UTF-8" standalone="no"?>
<!DOCTYPE svg PUBLIC "-//W3C//DTD SVG 1.1//EN"
 "http://www.w3.org/Graphics/SVG/1.1/DTD/svg11.dtd">
<!-- Generated by graphviz version 2.48.0 (20210717.1556)
 -->
<!-- Title: SmartString Pages: 1 -->
<svg width="265pt" height="138pt"
 viewBox="0.00 0.00 265.00 138.00" xmlns="http://www.w3.org/2000/svg" xmlns:xlink="http://www.w3.org/1999/xlink">
<g id="graph0" class="graph" transform="scale(1 1) rotate(0) translate(4 134)">
<title>SmartString</title>
<polygon fill="transparent" stroke="transparent" points="-4,4 -4,-134 261,-134 261,4 -4,4"/>
<!-- smartString -->
<g id="node1" class="node">
<title>smartString</title>
<text text-anchor="start" x="9.5" y="-62" font-family="inter" font-size="10.00">{</text>
<text text-anchor="start" x="15.5" y="-62" font-family="inter" font-size="10.00" fill="#f37021">slider</text>
<text text-anchor="start" x="42.5" y="-62" font-family="inter" font-size="10.00">.</text>
<text text-anchor="start" x="47.5" y="-62" font-family="inter" font-size="10.00" fill="#f37021">value</text>
<text text-anchor="start" x="74.5" y="-62" font-family="inter" font-size="10.00">:</text>
<text text-anchor="start" x="79.5" y="-62" font-family="inter" font-size="10.00" fill="#67bc6b">choose</text>
<text text-anchor="start" x="115.5" y="-62" font-family="inter" font-size="10.00">(</text>
<text text-anchor="start" x="121.5" y="-62" font-family="inter" font-size="10.00" fill="#eb417a">1</text>
<text text-anchor="start" x="127.5" y="-62" font-family="inter" font-size="10.00">|</text>
<text text-anchor="start" x="133.5" y="-62" font-family="inter" font-size="10.00" fill="#eb417a">2</text>
<text text-anchor="start" x="142.5" y="-62" font-family="inter" font-size="10.00">|</text>
<text text-anchor="start" x="148.5" y="-62" font-family="inter" font-size="10.00" fill="#eb417a">3</text>
<text text-anchor="start" x="157.5" y="-62" font-family="inter" font-size="10.00">):</text>
<text text-anchor="start" x="165.5" y="-62" font-family="inter" font-size="10.00" fill="#765ba7">one</text>
<text text-anchor="start" x="185.5" y="-62" font-family="inter" font-size="10.00">|</text>
<text text-anchor="start" x="191.5" y="-62" font-family="inter" font-size="10.00" fill="#765ba7">two</text>
<text text-anchor="start" x="211.5" y="-62" font-family="inter" font-size="10.00">|</text>
<text text-anchor="start" x="217.5" y="-62" font-family="inter" font-size="10.00" fill="#765ba7">three</text>
<text text-anchor="start" x="244.5" y="-62" font-family="inter" font-size="10.00">}</text>
</g>
<!-- selector -->
<g id="node2" class="node">
<title>selector</title>
<text text-anchor="middle" x="41.5" y="-122" font-family="inter" font-size="10.00" fill="#f37021">Selectors</text>
</g>
<!-- selector&#45;&gt;smartString -->
<g id="edge1" class="edge">
<title>selector&#45;&gt;smartString:selector1</title>
<path fill="none" stroke="#2196f3" stroke-width="1.5" d="M39.31,-118.79C36.11,-111.54 30.31,-96.93 28.25,-82.16"/>
<polygon fill="#2196f3" stroke="#2196f3" stroke-width="1.5" points="31.73,-81.71 27.5,-72 24.75,-82.23 31.73,-81.71"/>
</g>
<!-- selector&#45;&gt;smartString -->
<g id="edge2" class="edge">
<title>selector&#45;&gt;smartString:selector2</title>
<path fill="none" stroke="#2196f3" stroke-width="1.5" d="M44.31,-118.86C48.43,-111.71 55.88,-97.25 58.53,-82.32"/>
<polygon fill="#2196f3" stroke="#2196f3" stroke-width="1.5" points="62.05,-82.28 59.5,-72 55.08,-81.63 62.05,-82.28"/>
</g>
<!-- formatterName -->
<g id="node3" class="node">
<title>formatterName</title>
<text text-anchor="middle" x="96.5" y="-3" font-family="inter" font-size="10.00" fill="#67bc6b">Formatter Name</text>
</g>
<!-- formatterName&#45;&gt;smartString -->
<g id="edge3" class="edge">
<title>formatterName&#45;&gt;smartString:name</title>
<path fill="none" stroke="#2196f3" stroke-width="1.5" d="M96.5,-11.23C96.5,-18.43 96.5,-32.78 96.5,-46.88"/>
<polygon fill="#2196f3" stroke="#2196f3" stroke-width="1.5" points="93,-47 96.5,-57 100,-47 93,-47"/>
</g>
<!-- formatterOptions -->
<g id="node4" class="node">
<title>formatterOptions</title>
<text text-anchor="middle" x="137.5" y="-122" font-family="inter" font-size="10.00" fill="#eb417a">Formatter Options</text>
</g>
<!-- formatterOptions&#45;&gt;smartString -->
<g id="edge4" class="edge">
<title>formatterOptions&#45;&gt;smartString:option1</title>
<path fill="none" stroke="#2196f3" stroke-width="1.5" d="M135.31,-118.79C132.11,-111.54 126.31,-96.93 124.25,-82.16"/>
<polygon fill="#2196f3" stroke="#2196f3" stroke-width="1.5" points="127.73,-81.71 123.5,-72 120.75,-82.23 127.73,-81.71"/>
</g>
<!-- formatterOptions&#45;&gt;smartString -->
<g id="edge5" class="edge">
<title>formatterOptions&#45;&gt;smartString:option2</title>
<path fill="none" stroke="#2196f3" stroke-width="1.5" d="M137.5,-118.95C137.5,-111.66 137.5,-96.67 137.5,-82"/>
<polygon fill="#2196f3" stroke="#2196f3" stroke-width="1.5" points="141,-82 137.5,-72 134,-82 141,-82"/>
</g>
<!-- formatterOptions&#45;&gt;smartString -->
<g id="edge6" class="edge">
<title>formatterOptions&#45;&gt;smartString:option3</title>
<path fill="none" stroke="#2196f3" stroke-width="1.5" d="M139.84,-118.81C143.27,-111.58 149.48,-97 151.69,-82.2"/>
<polygon fill="#2196f3" stroke="#2196f3" stroke-width="1.5" points="155.2,-82.24 152.5,-72 148.22,-81.69 155.2,-82.24"/>
</g>
<!-- format -->
<g id="node5" class="node">
<title>format</title>
<text text-anchor="middle" x="200.5" y="-3" font-family="inter" font-size="10.00" fill="#765ba7">Format</text>
</g>
<!-- format&#45;&gt;smartString -->
<g id="edge7" class="edge">
<title>format&#45;&gt;smartString:format1</title>
<path fill="none" stroke="#2196f3" stroke-width="1.5" d="M196.21,-11.1C190.15,-18.01 179.42,-31.86 175.76,-46.96"/>
<polygon fill="#2196f3" stroke="#2196f3" stroke-width="1.5" points="172.28,-46.64 174.5,-57 179.22,-47.52 172.28,-46.64"/>
</g>
<!-- format&#45;&gt;smartString -->
<g id="edge8" class="edge">
<title>format&#45;&gt;smartString:format2</title>
<path fill="none" stroke="#2196f3" stroke-width="1.5" d="M200.5,-11.23C200.5,-18.43 200.5,-32.78 200.5,-46.88"/>
<polygon fill="#2196f3" stroke="#2196f3" stroke-width="1.5" points="197,-47 200.5,-57 204,-47 197,-47"/>
</g>
<!-- format&#45;&gt;smartString -->
<g id="edge9" class="edge">
<title>format&#45;&gt;smartString:format3</title>
<path fill="none" stroke="#2196f3" stroke-width="1.5" d="M205.73,-11.24C212.78,-18.08 224.93,-31.59 229.07,-46.81"/>
<polygon fill="#2196f3" stroke="#2196f3" stroke-width="1.5" points="225.65,-47.58 230.5,-57 232.58,-46.61 225.65,-47.58"/>
</g>
</g>
</svg>
