<?xml version="1.0" encoding="UTF-8" standalone="no"?>
<!DOCTYPE svg PUBLIC "-//W3C//DTD SVG 1.1//EN"
 "http://www.w3.org/Graphics/SVG/1.1/DTD/svg11.dtd">
<!-- Generated by graphviz version 2.47.0 (20210316.0004)
 -->
<!-- Title: TableCollection Pages: 1 -->
<svg width="418pt" height="203pt"
 viewBox="0.00 0.00 418.00 203.00" xmlns="http://www.w3.org/2000/svg" xmlns:xlink="http://www.w3.org/1999/xlink">
<g id="page0,1_graph0" class="graph" transform="scale(1 1) rotate(0) translate(4 199)">
<title>TableCollection</title>
<polygon fill="transparent" stroke="transparent" points="-4,4 -4,-199 414,-199 414,4 -4,4"/>
<g id="clust1" class="cluster">
<title>cluster_editor</title>
<path fill="#daedfd" stroke="#2196f3" d="M20,-62C20,-62 137,-62 137,-62 143,-62 149,-68 149,-74 149,-74 149,-121 149,-121 149,-127 143,-133 137,-133 137,-133 20,-133 20,-133 14,-133 8,-127 8,-121 8,-121 8,-74 8,-74 8,-68 14,-62 20,-62"/>
<text text-anchor="middle" x="30" y="-121" font-family="inter" font-size="10.00">Editor</text>
</g>
<g id="clust2" class="cluster">
<title>cluster_player</title>
<path fill="#fff7e1" stroke="#ffcb27" d="M181,-8C181,-8 390,-8 390,-8 396,-8 402,-14 402,-20 402,-20 402,-175 402,-175 402,-181 396,-187 390,-187 390,-187 181,-187 181,-187 175,-187 169,-181 169,-175 169,-175 169,-20 169,-20 169,-14 175,-8 181,-8"/>
<text text-anchor="middle" x="191.5" y="-175" font-family="inter" font-size="10.00">Player</text>
</g>
<!-- collection -->
<g id="node1" class="node">
<title>collection</title>
<path fill="#f5f5f5" stroke="#2196f3" d="M129,-106C129,-106 28,-106 28,-106 22,-106 16,-100 16,-94 16,-94 16,-82 16,-82 16,-76 22,-70 28,-70 28,-70 129,-70 129,-70 135,-70 141,-76 141,-82 141,-82 141,-94 141,-94 141,-100 135,-106 129,-106"/>
<text text-anchor="middle" x="78.5" y="-85.5" font-family="inter" font-size="10.00">String Table Collection</text>
</g>
<!-- english -->
<g id="node2" class="node">
<title>english</title>
<path fill="#f5f5f5" stroke="#2196f3" d="M239,-160C239,-160 189,-160 189,-160 183,-160 177,-154 177,-148 177,-148 177,-136 177,-136 177,-130 183,-124 189,-124 189,-124 239,-124 239,-124 245,-124 251,-130 251,-136 251,-136 251,-148 251,-148 251,-154 245,-160 239,-160"/>
<text text-anchor="middle" x="214" y="-145" font-family="inter" font-size="10.00">String Table</text>
<text text-anchor="middle" x="214" y="-134" font-family="inter" font-size="10.00">English</text>
</g>
<!-- collection&#45;&gt;english -->
<g id="edge1" class="edge">
<title>collection&#45;&gt;english</title>
<path fill="none" stroke="#2196f3" stroke-width="1.5" d="M79,-106.28C79,-121.95 79,-142 79,-142 79,-142 166.75,-142 166.75,-142"/>
<polygon fill="#2196f3" stroke="#2196f3" stroke-width="1.5" points="166.75,-145.5 176.75,-142 166.75,-138.5 166.75,-145.5"/>
</g>
<!-- french -->
<g id="node3" class="node">
<title>french</title>
<path fill="#f5f5f5" stroke="#2196f3" d="M239,-106C239,-106 189,-106 189,-106 183,-106 177,-100 177,-94 177,-94 177,-82 177,-82 177,-76 183,-70 189,-70 189,-70 239,-70 239,-70 245,-70 251,-76 251,-82 251,-82 251,-94 251,-94 251,-100 245,-106 239,-106"/>
<text text-anchor="middle" x="214" y="-91" font-family="inter" font-size="10.00">String Table</text>
<text text-anchor="middle" x="214" y="-80" font-family="inter" font-size="10.00">French</text>
</g>
<!-- collection&#45;&gt;french -->
<g id="edge2" class="edge">
<title>collection&#45;&gt;french</title>
<path fill="none" stroke="#2196f3" stroke-width="1.5" d="M141.09,-88C141.09,-88 166.78,-88 166.78,-88"/>
<polygon fill="#2196f3" stroke="#2196f3" stroke-width="1.5" points="166.78,-91.5 176.78,-88 166.78,-84.5 166.78,-91.5"/>
</g>
<!-- japanese -->
<g id="node4" class="node">
<title>japanese</title>
<path fill="#f5f5f5" stroke="#2196f3" d="M239,-52C239,-52 189,-52 189,-52 183,-52 177,-46 177,-40 177,-40 177,-28 177,-28 177,-22 183,-16 189,-16 189,-16 239,-16 239,-16 245,-16 251,-22 251,-28 251,-28 251,-40 251,-40 251,-46 245,-52 239,-52"/>
<text text-anchor="middle" x="214" y="-37" font-family="inter" font-size="10.00">String Table</text>
<text text-anchor="middle" x="214" y="-26" font-family="inter" font-size="10.00">Japanese</text>
</g>
<!-- collection&#45;&gt;japanese -->
<g id="edge3" class="edge">
<title>collection&#45;&gt;japanese</title>
<path fill="none" stroke="#2196f3" stroke-width="1.5" d="M79,-69.72C79,-54.05 79,-34 79,-34 79,-34 166.75,-34 166.75,-34"/>
<polygon fill="#2196f3" stroke="#2196f3" stroke-width="1.5" points="166.75,-37.5 176.75,-34 166.75,-30.5 166.75,-37.5"/>
</g>
<!-- shared -->
<g id="node5" class="node">
<title>shared</title>
<path fill="#f5f5f5" stroke="#2196f3" d="M382,-106C382,-106 299,-106 299,-106 293,-106 287,-100 287,-94 287,-94 287,-82 287,-82 287,-76 293,-70 299,-70 299,-70 382,-70 382,-70 388,-70 394,-76 394,-82 394,-82 394,-94 394,-94 394,-100 388,-106 382,-106"/>
<text text-anchor="middle" x="340.5" y="-85.5" font-family="inter" font-size="10.00">Shared Table Data</text>
</g>
<!-- english&#45;&gt;shared -->
<g id="edge4" class="edge">
<title>english&#45;&gt;shared</title>
<path fill="none" stroke="#2196f3" stroke-width="1.5" d="M251.08,-142C288.56,-142 341,-142 341,-142 341,-142 341,-116.28 341,-116.28"/>
<polygon fill="#2196f3" stroke="#2196f3" stroke-width="1.5" points="344.5,-116.28 341,-106.28 337.5,-116.28 344.5,-116.28"/>
</g>
<!-- french&#45;&gt;shared -->
<g id="edge5" class="edge">
<title>french&#45;&gt;shared</title>
<path fill="none" stroke="#2196f3" stroke-width="1.5" d="M251.27,-88C251.27,-88 276.62,-88 276.62,-88"/>
<polygon fill="#2196f3" stroke="#2196f3" stroke-width="1.5" points="276.62,-91.5 286.62,-88 276.62,-84.5 276.62,-91.5"/>
</g>
<!-- japanese&#45;&gt;shared -->
<g id="edge6" class="edge">
<title>japanese&#45;&gt;shared</title>
<path fill="none" stroke="#2196f3" stroke-width="1.5" d="M251.08,-34C288.56,-34 341,-34 341,-34 341,-34 341,-59.72 341,-59.72"/>
<polygon fill="#2196f3" stroke="#2196f3" stroke-width="1.5" points="337.5,-59.72 341,-69.72 344.5,-59.72 337.5,-59.72"/>
</g>
</g>
</svg>
