<?xml version="1.0" encoding="UTF-8" standalone="no"?>
<!DOCTYPE svg PUBLIC "-//W3C//DTD SVG 1.1//EN"
 "http://www.w3.org/Graphics/SVG/1.1/DTD/svg11.dtd">
<!-- Generated by graphviz version 2.48.0 (20210717.1556)
 -->
<!-- Title: TableCollection Pages: 1 -->
<svg width="274pt" height="260pt"
 viewBox="0.00 0.00 273.99 260.00" xmlns="http://www.w3.org/2000/svg" xmlns:xlink="http://www.w3.org/1999/xlink">
<g id="graph0" class="graph" transform="scale(1 1) rotate(0) translate(4 256)">
<title>TableCollection</title>
<polygon fill="transparent" stroke="transparent" points="-4,4 -4,-256 269.99,-256 269.99,4 -4,4"/>
<g id="clust1" class="cluster">
<title>cluster_ios</title>
<path fill="#daedfd" stroke="#2196f3" d="M20,-136C20,-136 118,-136 118,-136 124,-136 130,-142 130,-148 130,-148 130,-195 130,-195 130,-201 124,-207 118,-207 118,-207 20,-207 20,-207 14,-207 8,-201 8,-195 8,-195 8,-148 8,-148 8,-142 14,-136 20,-136"/>
<text text-anchor="middle" x="24" y="-195" font-family="inter" font-size="10.00">iOS</text>
</g>
<g id="clust2" class="cluster">
<title>cluster_android</title>
<path fill="#e9f4e9" stroke="#67bc6b" d="M150,-136C150,-136 238,-136 238,-136 244,-136 250,-142 250,-148 250,-148 250,-195 250,-195 250,-201 244,-207 238,-207 238,-207 150,-207 150,-207 144,-207 138,-201 138,-195 138,-195 138,-148 138,-148 138,-142 144,-136 150,-136"/>
<text text-anchor="middle" x="163.5" y="-195" font-family="inter" font-size="10.00">Android</text>
</g>
<!-- getStartupLocale -->
<g id="node1" class="node">
<title>getStartupLocale</title>
<path fill="#f5f5f5" stroke="#2196f3" d="M239.5,-252C239.5,-252 148.5,-252 148.5,-252 142.5,-252 136.5,-246 136.5,-240 136.5,-240 136.5,-228 136.5,-228 136.5,-222 142.5,-216 148.5,-216 148.5,-216 239.5,-216 239.5,-216 245.5,-216 251.5,-222 251.5,-228 251.5,-228 251.5,-240 251.5,-240 251.5,-246 245.5,-252 239.5,-252"/>
<text text-anchor="middle" x="194" y="-231.5" font-family="inter" font-size="10.00">Select Startup Locale</text>
</g>
<!-- ios_getPreferredLanguage -->
<g id="node2" class="node">
<title>ios_getPreferredLanguage</title>
<path fill="#f5f5f5" stroke="#2196f3" d="M110,-180C110,-180 28,-180 28,-180 22,-180 16,-174 16,-168 16,-168 16,-156 16,-156 16,-150 22,-144 28,-144 28,-144 110,-144 110,-144 116,-144 122,-150 122,-156 122,-156 122,-168 122,-168 122,-174 116,-180 110,-180"/>
<text text-anchor="middle" x="69" y="-159.5" font-family="inter" font-size="10.00">Preferred Language</text>
</g>
<!-- getStartupLocale&#45;&gt;ios_getPreferredLanguage -->
<g id="edge1" class="edge">
<title>getStartupLocale&#45;&gt;ios_getPreferredLanguage</title>
<path fill="none" stroke="#2196f3" stroke-width="1.5" d="M151.88,-215.94C145.79,-213.13 139.67,-210.11 134,-207 122.71,-200.8 110.89,-193.18 100.48,-186.03"/>
<polygon fill="#2196f3" stroke="#2196f3" stroke-width="1.5" points="102.31,-183.04 92.1,-180.18 98.3,-188.78 102.31,-183.04"/>
</g>
<!-- getAndroidDeviceLanguage -->
<g id="node3" class="node">
<title>getAndroidDeviceLanguage</title>
<path fill="#f5f5f5" stroke="#2196f3" d="M229.5,-180C229.5,-180 158.5,-180 158.5,-180 152.5,-180 146.5,-174 146.5,-168 146.5,-168 146.5,-156 146.5,-156 146.5,-150 152.5,-144 158.5,-144 158.5,-144 229.5,-144 229.5,-144 235.5,-144 241.5,-150 241.5,-156 241.5,-156 241.5,-168 241.5,-168 241.5,-174 235.5,-180 229.5,-180"/>
<text text-anchor="middle" x="194" y="-159.5" font-family="inter" font-size="10.00">Device Language</text>
</g>
<!-- getStartupLocale&#45;&gt;getAndroidDeviceLanguage -->
<g id="edge3" class="edge">
<title>getStartupLocale&#45;&gt;getAndroidDeviceLanguage</title>
<path fill="none" stroke="#2196f3" stroke-width="1.5" d="M194,-215.7C194,-207.98 194,-198.71 194,-190.11"/>
<polygon fill="#2196f3" stroke="#2196f3" stroke-width="1.5" points="197.5,-190.1 194,-180.1 190.5,-190.1 197.5,-190.1"/>
</g>
<!-- getSystemCulture -->
<g id="node4" class="node">
<title>getSystemCulture</title>
<path fill="#f5f5f5" stroke="#2196f3" d="M225,-108C225,-108 163,-108 163,-108 157,-108 151,-102 151,-96 151,-96 151,-84 151,-84 151,-78 157,-72 163,-72 163,-72 225,-72 225,-72 231,-72 237,-78 237,-84 237,-84 237,-96 237,-96 237,-102 231,-108 225,-108"/>
<text text-anchor="middle" x="194" y="-87.5" font-family="inter" font-size="10.00">System Culture</text>
</g>
<!-- getStartupLocale&#45;&gt;getSystemCulture -->
<g id="edge5" class="edge">
<title>getStartupLocale&#45;&gt;getSystemCulture</title>
<path fill="none" stroke="#2196f3" stroke-width="1.5" d="M245.8,-215.97C248.96,-213.39 251.76,-210.42 254,-207 271.32,-180.62 268.11,-164.22 254,-136 249.77,-127.53 243.1,-120.25 235.72,-114.15"/>
<polygon fill="#2196f3" stroke="#2196f3" stroke-width="1.5" points="237.62,-111.2 227.52,-108.01 233.42,-116.8 237.62,-111.2"/>
</g>
<!-- ios_getPreferredLanguage&#45;&gt;getSystemCulture -->
<g id="edge2" class="edge">
<title>ios_getPreferredLanguage&#45;&gt;getSystemCulture</title>
<path fill="none" stroke="#2196f3" stroke-width="1.5" d="M99.58,-143.88C116.07,-134.64 136.62,-123.13 154.34,-113.21"/>
<polygon fill="#2196f3" stroke="#2196f3" stroke-width="1.5" points="156.29,-116.13 163.3,-108.19 152.87,-110.02 156.29,-116.13"/>
</g>
<!-- getAndroidDeviceLanguage&#45;&gt;getSystemCulture -->
<g id="edge4" class="edge">
<title>getAndroidDeviceLanguage&#45;&gt;getSystemCulture</title>
<path fill="none" stroke="#2196f3" stroke-width="1.5" d="M194,-143.7C194,-135.98 194,-126.71 194,-118.11"/>
<polygon fill="#2196f3" stroke="#2196f3" stroke-width="1.5" points="197.5,-118.1 194,-108.1 190.5,-118.1 197.5,-118.1"/>
</g>
<!-- applicationSystemLanguage -->
<g id="node5" class="node">
<title>applicationSystemLanguage</title>
<path fill="#f5f5f5" stroke="#2196f3" d="M231,-36C231,-36 157,-36 157,-36 151,-36 145,-30 145,-24 145,-24 145,-12 145,-12 145,-6 151,0 157,0 157,0 231,0 231,0 237,0 243,-6 243,-12 243,-12 243,-24 243,-24 243,-30 237,-36 231,-36"/>
<text text-anchor="middle" x="194" y="-15.5" font-family="inter" font-size="10.00">System Language</text>
</g>
<!-- getSystemCulture&#45;&gt;applicationSystemLanguage -->
<g id="edge6" class="edge">
<title>getSystemCulture&#45;&gt;applicationSystemLanguage</title>
<path fill="none" stroke="#2196f3" stroke-width="1.5" d="M194,-71.7C194,-63.98 194,-54.71 194,-46.11"/>
<polygon fill="#2196f3" stroke="#2196f3" stroke-width="1.5" points="197.5,-46.1 194,-36.1 190.5,-46.1 197.5,-46.1"/>
</g>
</g>
</svg>
