<svg xmlns="http://www.w3.org/2000/svg" xmlns:xlink="http://www.w3.org/1999/xlink" xmlns:lucid="lucid" width="708.5" height="843.5"><g transform="translate(-80 -80)" lucid:page-tab-id="0_0"><path d="M100 108c0-4.42 3.58-8 8-8h164c4.42 0 8 3.58 8 8v44c0 4.42-3.58 8-8 8H108c-4.42 0-8-3.58-8-8z" stroke="#333" stroke-width="3" fill="#ff8f80"/><use xlink:href="#a" transform="matrix(1,0,0,1,108,108) translate(11.700000000000031 25.599999999999998)"/><use xlink:href="#b" transform="matrix(1,0,0,1,108,108) translate(66.55000000000001 25.599999999999998)"/><path d="M200 181c0-4.42 3.58-8 8-8h164c4.42 0 8 3.58 8 8v43c0 4.42-3.58 8-8 8H208c-4.42 0-8-3.58-8-8z" stroke="#333" stroke-width="3" fill="#ffc374"/><use xlink:href="#a" transform="matrix(1,0,0,1,208,181) translate(41.600000000000016 14.399999999999995)"/><use xlink:href="#c" transform="matrix(1,0,0,1,208,181) translate(96.44999999999999 14.399999999999995)"/><use xlink:href="#d" transform="matrix(1,0,0,1,208,181) translate(24.15000000000002 35.999999999999986)"/><use xlink:href="#e" transform="matrix(1,0,0,1,208,181) translate(67 35.999999999999986)"/><use xlink:href="#f" transform="matrix(1,0,0,1,208,181) translate(89.94999999999999 35.999999999999986)"/><path d="M197 202.5c-3.87 0-7-3.13-7-7V163" stroke="#333" stroke-width="3" fill="none"/><path d="M198.5 204h-1.54v-3h1.54zM191.5 163.04h-3v-1.54h3z" fill="#333"/><path d="M321.5 851.5c0-4.42 3.58-8 8-8h164c4.42 0 8 3.58 8 8v44c0 4.42-3.58 8-8 8h-164c-4.42 0-8-3.58-8-8z" stroke="#333" stroke-width="3" fill="#ffc374"/><use xlink:href="#g" transform="matrix(1,0,0,1,329.5,851.5) translate(57.07500000000001 25.599999999999998)"/><path d="M318.5 873.5H302c-6.63 0-12-5.37-12-12V235" stroke="#333" stroke-width="3" fill="none"/><path d="M320 875h-1.54v-3H320zM291.5 235.04h-3v-1.54h3z" fill="#333"/><path d="M321.5 255.5c0-4.42 3.58-8 8-8h234c4.42 0 8 3.58 8 8v43c0 4.42-3.58 8-8 8h-234c-4.42 0-8-3.58-8-8z" stroke="#333" stroke-width="3" fill="#ffc374"/><use xlink:href="#h" transform="matrix(1,0,0,1,329.50000000000006,255.5) translate(8.30000000000004 14.399999999999995)"/><use xlink:href="#i" transform="matrix(1,0,0,1,329.50000000000006,255.5) translate(109.05000000000001 14.399999999999995)"/><use xlink:href="#j" transform="matrix(1,0,0,1,329.50000000000006,255.5) translate(148.9 14.399999999999995)"/><use xlink:href="#k" transform="matrix(1,0,0,1,329.50000000000006,255.5) translate(171.85 14.399999999999995)"/><use xlink:href="#l" transform="matrix(1,0,0,1,329.50000000000006,255.5) translate(59.15000000000004 35.999999999999986)"/><use xlink:href="#m" transform="matrix(1,0,0,1,329.50000000000006,255.5) translate(102 35.999999999999986)"/><use xlink:href="#n" transform="matrix(1,0,0,1,329.50000000000006,255.5) translate(124.94999999999999 35.999999999999986)"/><path d="M391.5 330c0-4.42 3.58-8 8-8h164c4.42 0 8 3.58 8 8v44c0 4.42-3.58 8-8 8h-164c-4.42 0-8-3.58-8-8z" stroke="#333" stroke-width="3" fill="#99d2f2"/><use xlink:href="#o" transform="matrix(1,0,0,1,399.5,330) translate(14.200000000000017 25.599999999999998)"/><use xlink:href="#p" transform="matrix(1,0,0,1,399.5,330) translate(114.94999999999999 25.599999999999998)"/><path d="M388.5 352h-8.64c-6.62 0-12-5.37-12-12v-30.5" stroke="#333" stroke-width="3" fill="none"/><path d="M390 353.5h-1.54v-3H390zM369.36 309.54h-3V308h3z" fill="#333"/><path d="M490 553.5c0-4.42 3.58-8 8-8h164c4.42 0 8 3.58 8 8v44c0 4.42-3.58 8-8 8H498c-4.42 0-8-3.58-8-8z" stroke="#333" stroke-width="3" fill="#99d2f2"/><use xlink:href="#g" transform="matrix(1,0,0,1,498,553.5) translate(57.07500000000001 25.599999999999998)"/><path d="M487 575.5h-4.34c-6.63 0-12-5.37-12-12V385" stroke="#333" stroke-width="3" fill="none"/><path d="M488.5 577h-1.54v-3h1.54zM472.16 385.04h-3v-1.54h3z" fill="#333"/><path d="M490 404.5c0-4.42 3.58-8 8-8h164c4.42 0 8 3.58 8 8v44c0 4.42-3.58 8-8 8H498c-4.42 0-8-3.58-8-8z" stroke="#333" stroke-width="3" fill="#99d2f2"/><use xlink:href="#q" transform="matrix(1,0,0,1,498,404.5) translate(6.675000000000011 25.599999999999998)"/><use xlink:href="#r" transform="matrix(1,0,0,1,498,404.5) translate(72.575 25.599999999999998)"/><path d="M490 479c0-4.42 3.58-8 8-8h164c4.42 0 8 3.58 8 8v44c0 4.42-3.58 8-8 8H498c-4.42 0-8-3.58-8-8z" stroke="#333" stroke-width="3" fill="#99d2f2"/><use xlink:href="#s" transform="matrix(1,0,0,1,498,479) translate(10.375000000000028 14.800000000000004)"/><use xlink:href="#t" transform="matrix(1,0,0,1,498,479) translate(68.875 14.800000000000004)"/><use xlink:href="#u" transform="matrix(1,0,0,1,498,479) translate(41.17500000000001 36.4)"/><path d="M391.5 628c0-4.42 3.58-8 8-8h164c4.42 0 8 3.58 8 8v44c0 4.42-3.58 8-8 8h-164c-4.42 0-8-3.58-8-8z" stroke="#333" stroke-width="3" fill="#a3d977"/><use xlink:href="#v" transform="matrix(1,0,0,1,399.5,628) translate(55.07500000000001 25.599999999999998)"/><path d="M388.5 650h-8.64c-6.62 0-12-5.37-12-12V309.5" stroke="#333" stroke-width="3" fill="none"/><path d="M390 651.5h-1.54v-3H390zM369.36 309.54h-3V308h3z" fill="#333"/><path d="M487 426.5h-4.34c-6.63 0-12-5.37-12-12V385" stroke="#333" stroke-width="3" fill="none"/><path d="M488.5 428h-1.54v-3h1.54zM472.16 385.04h-3v-1.54h3z" fill="#333"/><path d="M487 501h-4.34c-6.63 0-12-5.37-12-12V385" stroke="#333" stroke-width="3" fill="none"/><path d="M488.5 502.5h-1.54v-3h1.54zM472.16 385.04h-3v-1.54h3z" fill="#333"/><path d="M490 777c0-4.42 3.58-8 8-8h164c4.42 0 8 3.58 8 8v44c0 4.42-3.58 8-8 8H498c-4.42 0-8-3.58-8-8z" stroke="#333" stroke-width="3" fill="#a3d977"/><g><use xlink:href="#g" transform="matrix(1,0,0,1,498,777) translate(57.07500000000001 25.599999999999998)"/></g><path d="M487 799h-4.34c-6.63 0-12-5.37-12-12V683" stroke="#333" stroke-width="3" fill="none"/><path d="M488.5 800.5h-1.54v-3h1.54zM472.16 683.04h-3v-1.54h3z" fill="#333"/><path d="M490 702.5c0-4.42 3.58-8 8-8h262.5c4.42 0 8 3.58 8 8v44c0 4.42-3.58 8-8 8H498c-4.42 0-8-3.58-8-8z" stroke="#333" stroke-width="3" fill="#a3d977"/><g><use xlink:href="#h" transform="matrix(1,0,0,1,498,702.5) translate(22.80000000000004 14.800000000000004)"/><use xlink:href="#i" transform="matrix(1,0,0,1,498,702.5) translate(123.55000000000001 14.800000000000004)"/><use xlink:href="#j" transform="matrix(1,0,0,1,498,702.5) translate(163.4 14.800000000000004)"/><use xlink:href="#k" transform="matrix(1,0,0,1,498,702.5) translate(186.35 14.800000000000004)"/><use xlink:href="#l" transform="matrix(1,0,0,1,498,702.5) translate(73.65000000000003 36.39999999999999)"/><use xlink:href="#m" transform="matrix(1,0,0,1,498,702.5) translate(116.5 36.39999999999999)"/><use xlink:href="#n" transform="matrix(1,0,0,1,498,702.5) translate(139.45 36.39999999999999)"/></g><path d="M487 724.5h-4.34c-6.63 0-12-5.37-12-12V683" stroke="#333" stroke-width="3" fill="none"/><path d="M488.5 726h-1.54v-3h1.54zM472.16 683.04h-3v-1.54h3z" fill="#333"/><path d="M318.5 277H302c-6.63 0-12-5.37-12-12v-30" stroke="#333" stroke-width="3" fill="none"/><path d="M320 278.5h-1.54v-3H320zM291.5 235.04h-3v-1.54h3z" fill="#333"/><defs><path d="M182 0l-62-99L58 0H3l86-130-79-118h55l55 88 55-88h55l-75 118L237 0h-55" id="w"/><path d="M24 0v-248h52v208h133V0H24" id="x"/><path d="M24 0v-248h52V0H24" id="y"/><path d="M76-208v77h127v40H76V0H24v-248h183v40H76" id="z"/><g id="a"><use transform="matrix(0.04999999999999998,0,0,0.04999999999999998,0,0)" xlink:href="#w"/><use transform="matrix(0.04999999999999998,0,0,0.04999999999999998,11.999999999999996,0)" xlink:href="#x"/><use transform="matrix(0.04999999999999998,0,0,0.04999999999999998,22.949999999999992,0)" xlink:href="#y"/><use transform="matrix(0.04999999999999998,0,0,0.04999999999999998,27.94999999999999,0)" xlink:href="#z"/><use transform="matrix(0.04999999999999998,0,0,0.04999999999999998,38.899999999999984,0)" xlink:href="#z"/></g><path d="M88-194c31-1 46 15 58 34l-1-101h50l1 261h-48c-2-10 0-23-3-31C134-8 116 4 84 4 32 4 16-41 15-95c0-56 19-97 73-99zm17 164c33 0 40-30 41-66 1-37-9-64-41-64s-38 30-39 65c0 43 13 65 39 65" id="A"/><path d="M110-194c64 0 96 36 96 99 0 64-35 99-97 99-61 0-95-36-95-99 0-62 34-99 96-99zm-1 164c35 0 45-28 45-65 0-40-10-65-43-65-34 0-45 26-45 65 0 36 10 65 43 65" id="B"/><path d="M190-63c-7 42-38 67-86 67-59 0-84-38-90-98-12-110 154-137 174-36l-49 2c-2-19-15-32-35-32-30 0-35 28-38 64-6 74 65 87 74 30" id="C"/><path d="M85 4C-2 5 27-109 22-190h50c7 57-23 150 33 157 60-5 35-97 40-157h50l1 190h-47c-2-12 1-28-3-38-12 25-28 42-61 42" id="D"/><path d="M220-157c-53 9-28 100-34 157h-49v-107c1-27-5-49-29-50C55-147 81-57 75 0H25l-1-190h47c2 12-1 28 3 38 10-53 101-56 108 0 13-22 24-43 59-42 82 1 51 116 57 194h-49v-107c-1-25-5-48-29-50" id="E"/><path d="M185-48c-13 30-37 53-82 52C43 2 14-33 14-96s30-98 90-98c62 0 83 45 84 108H66c0 31 8 55 39 56 18 0 30-7 34-22zm-45-69c5-46-57-63-70-21-2 6-4 13-4 21h74" id="F"/><path d="M135-194c87-1 58 113 63 194h-50c-7-57 23-157-34-157-59 0-34 97-39 157H25l-1-190h47c2 12-1 28 3 38 12-26 28-41 61-42" id="G"/><path d="M115-3C79 11 28 4 28-45v-112H4v-33h27l15-45h31v45h36v33H77v99c-1 23 16 31 38 25v30" id="H"/><g id="b"><use transform="matrix(0.04999999999999998,0,0,0.04999999999999998,0,0)" xlink:href="#A"/><use transform="matrix(0.04999999999999998,0,0,0.04999999999999998,10.949999999999996,0)" xlink:href="#B"/><use transform="matrix(0.04999999999999998,0,0,0.04999999999999998,21.89999999999999,0)" xlink:href="#C"/><use transform="matrix(0.04999999999999998,0,0,0.04999999999999998,31.899999999999988,0)" xlink:href="#D"/><use transform="matrix(0.04999999999999998,0,0,0.04999999999999998,42.84999999999998,0)" xlink:href="#E"/><use transform="matrix(0.04999999999999998,0,0,0.04999999999999998,58.849999999999966,0)" xlink:href="#F"/><use transform="matrix(0.04999999999999998,0,0,0.04999999999999998,68.84999999999997,0)" xlink:href="#G"/><use transform="matrix(0.04999999999999998,0,0,0.04999999999999998,79.79999999999995,0)" xlink:href="#H"/></g><path d="M121-226c-27-7-43 5-38 36h38v33H83V0H34v-157H6v-33h28c-9-59 32-81 87-68v32" id="I"/><path d="M25-224v-37h50v37H25zM25 0v-190h50V0H25" id="J"/><path d="M25 0v-261h50V0H25" id="K"/><g id="c"><use transform="matrix(0.04999999999999998,0,0,0.04999999999999998,0,0)" xlink:href="#I"/><use transform="matrix(0.04999999999999998,0,0,0.04999999999999998,5.9499999999999975,0)" xlink:href="#J"/><use transform="matrix(0.04999999999999998,0,0,0.04999999999999998,10.949999999999996,0)" xlink:href="#K"/><use transform="matrix(0.04999999999999998,0,0,0.04999999999999998,15.949999999999994,0)" xlink:href="#F"/></g><path d="M67-93c0 74 22 123 53 168H70C40 30 18-18 18-93s22-123 52-168h50c-32 44-53 94-53 168" id="L"/><g id="d"><use transform="matrix(0.04999999999999998,0,0,0.04999999999999998,0,0)" xlink:href="#L"/><use transform="matrix(0.04999999999999998,0,0,0.04999999999999998,5.9499999999999975,0)" xlink:href="#B"/><use transform="matrix(0.04999999999999998,0,0,0.04999999999999998,16.89999999999999,0)" xlink:href="#G"/><use transform="matrix(0.04999999999999998,0,0,0.04999999999999998,27.84999999999999,0)" xlink:href="#F"/></g><path d="M135-150c-39-12-60 13-60 57V0H25l-1-190h47c2 13-1 29 3 40 6-28 27-53 61-41v41" id="M"/><g id="e"><use transform="matrix(0.04999999999999998,0,0,0.04999999999999998,0,0)" xlink:href="#B"/><use transform="matrix(0.04999999999999998,0,0,0.04999999999999998,10.949999999999996,0)" xlink:href="#M"/></g><path d="M102-93c0 74-22 123-52 168H0C30 29 54-18 53-93c0-74-22-123-53-168h50c30 45 52 94 52 168" id="N"/><g id="f"><use transform="matrix(0.04999999999999998,0,0,0.04999999999999998,0,0)" xlink:href="#E"/><use transform="matrix(0.04999999999999998,0,0,0.04999999999999998,15.999999999999995,0)" xlink:href="#B"/><use transform="matrix(0.04999999999999998,0,0,0.04999999999999998,26.94999999999999,0)" xlink:href="#M"/><use transform="matrix(0.04999999999999998,0,0,0.04999999999999998,33.94999999999999,0)" xlink:href="#F"/><use transform="matrix(0.04999999999999998,0,0,0.04999999999999998,43.94999999999999,0)" xlink:href="#N"/></g><path d="M175 0L67-191c6 58 2 128 3 191H24v-248h59L193-55c-6-58-2-129-3-193h46V0h-61" id="O"/><path d="M137-138c1-29-70-34-71-4 15 46 118 7 119 86 1 83-164 76-172 9l43-7c4 19 20 25 44 25 33 8 57-30 24-41C81-84 22-81 20-136c-2-80 154-74 161-7" id="P"/><g id="g"><use transform="matrix(0.04999999999999998,0,0,0.04999999999999998,0,0)" xlink:href="#O"/><use transform="matrix(0.04999999999999998,0,0,0.04999999999999998,12.949999999999996,0)" xlink:href="#B"/><use transform="matrix(0.04999999999999998,0,0,0.04999999999999998,23.89999999999999,0)" xlink:href="#H"/><use transform="matrix(0.04999999999999998,0,0,0.04999999999999998,29.84999999999999,0)" xlink:href="#F"/><use transform="matrix(0.04999999999999998,0,0,0.04999999999999998,39.84999999999998,0)" xlink:href="#P"/></g><path fill="#333" d="M136-208V0H84v-208H4v-40h212v40h-80" id="Q"/><path fill="#333" d="M135-150c-39-12-60 13-60 57V0H25l-1-190h47c2 13-1 29 3 40 6-28 27-53 61-41v41" id="R"/><path fill="#333" d="M133-34C117-15 103 5 69 4 32 3 11-16 11-54c-1-60 55-63 116-61 1-26-3-47-28-47-18 1-26 9-28 27l-52-2c7-38 36-58 82-57s74 22 75 68l1 82c-1 14 12 18 25 15v27c-30 8-71 5-69-32zm-48 3c29 0 43-24 42-57-32 0-66-3-65 30 0 17 8 27 23 27" id="S"/><path fill="#333" d="M135-194c87-1 58 113 63 194h-50c-7-57 23-157-34-157-59 0-34 97-39 157H25l-1-190h47c2 12-1 28 3 38 12-26 28-41 61-42" id="T"/><path fill="#333" d="M137-138c1-29-70-34-71-4 15 46 118 7 119 86 1 83-164 76-172 9l43-7c4 19 20 25 44 25 33 8 57-30 24-41C81-84 22-81 20-136c-2-80 154-74 161-7" id="U"/><path fill="#333" d="M25 0v-261h50V0H25" id="V"/><path fill="#333" d="M115-3C79 11 28 4 28-45v-112H4v-33h27l15-45h31v45h36v33H77v99c-1 23 16 31 38 25v30" id="W"/><path fill="#333" d="M25-224v-37h50v37H25zM25 0v-190h50V0H25" id="X"/><path fill="#333" d="M110-194c64 0 96 36 96 99 0 64-35 99-97 99-61 0-95-36-95-99 0-62 34-99 96-99zm-1 164c35 0 45-28 45-65 0-40-10-65-43-65-34 0-45 26-45 65 0 36 10 65 43 65" id="Y"/><g id="h"><use transform="matrix(0.04999999999999998,0,0,0.04999999999999998,0,0)" xlink:href="#Q"/><use transform="matrix(0.04999999999999998,0,0,0.04999999999999998,9.949999999999996,0)" xlink:href="#R"/><use transform="matrix(0.04999999999999998,0,0,0.04999999999999998,16.949999999999992,0)" xlink:href="#S"/><use transform="matrix(0.04999999999999998,0,0,0.04999999999999998,26.94999999999999,0)" xlink:href="#T"/><use transform="matrix(0.04999999999999998,0,0,0.04999999999999998,37.899999999999984,0)" xlink:href="#U"/><use transform="matrix(0.04999999999999998,0,0,0.04999999999999998,47.89999999999998,0)" xlink:href="#V"/><use transform="matrix(0.04999999999999998,0,0,0.04999999999999998,52.899999999999984,0)" xlink:href="#S"/><use transform="matrix(0.04999999999999998,0,0,0.04999999999999998,62.89999999999998,0)" xlink:href="#W"/><use transform="matrix(0.04999999999999998,0,0,0.04999999999999998,68.84999999999998,0)" xlink:href="#X"/><use transform="matrix(0.04999999999999998,0,0,0.04999999999999998,73.84999999999998,0)" xlink:href="#Y"/><use transform="matrix(0.04999999999999998,0,0,0.04999999999999998,84.79999999999998,0)" xlink:href="#T"/></g><path fill="#333" d="M238-95c0 69-44 99-111 99C63 4 22-25 22-93v-155h51v151c-1 38 19 59 55 60 90 1 49-130 58-211h52v153" id="Z"/><g id="i"><use transform="matrix(0.04999999999999998,0,0,0.04999999999999998,0,0)" xlink:href="#Z"/><use transform="matrix(0.04999999999999998,0,0,0.04999999999999998,12.949999999999996,0)" xlink:href="#T"/><use transform="matrix(0.04999999999999998,0,0,0.04999999999999998,23.89999999999999,0)" xlink:href="#X"/><use transform="matrix(0.04999999999999998,0,0,0.04999999999999998,28.899999999999988,0)" xlink:href="#W"/></g><g id="j"><use transform="matrix(0.04999999999999998,0,0,0.04999999999999998,0,0)" xlink:href="#B"/><use transform="matrix(0.04999999999999998,0,0,0.04999999999999998,10.949999999999996,0)" xlink:href="#M"/></g><path fill="#333" d="M67-125c0 54 23 88 75 88 28 0 53-7 68-21v-34h-60v-39h108v91C232-14 192 4 140 4 58 4 20-42 15-125 8-236 126-280 215-234c19 10 29 26 37 47l-47 15c-11-23-29-39-63-39-53 1-75 33-75 86" id="aa"/><path fill="#333" d="M85 4C-2 5 27-109 22-190h50c7 57-23 150 33 157 60-5 35-97 40-157h50l1 190h-47c-2-12 1-28-3-38-12 25-28 42-61 42" id="ab"/><path fill="#333" d="M135-194c53 0 70 44 70 98 0 56-19 98-73 100-31 1-45-17-59-34 3 33 2 69 2 105H25l-1-265h48c2 10 0 23 3 31 11-24 29-35 60-35zM114-30c33 0 39-31 40-66 0-38-9-64-40-64-56 0-55 130 0 130" id="ac"/><g id="k"><use transform="matrix(0.04999999999999997,0,0,0.04999999999999997,0,0)" xlink:href="#aa"/><use transform="matrix(0.04999999999999997,0,0,0.04999999999999997,13.999999999999991,0)" xlink:href="#R"/><use transform="matrix(0.04999999999999997,0,0,0.04999999999999997,20.999999999999986,0)" xlink:href="#Y"/><use transform="matrix(0.04999999999999997,0,0,0.04999999999999997,31.949999999999978,0)" xlink:href="#ab"/><use transform="matrix(0.04999999999999997,0,0,0.04999999999999997,42.89999999999997,0)" xlink:href="#ac"/></g><path fill="#333" d="M67-93c0 74 22 123 53 168H70C40 30 18-18 18-93s22-123 52-168h50c-32 44-53 94-53 168" id="ad"/><path fill="#333" d="M185-48c-13 30-37 53-82 52C43 2 14-33 14-96s30-98 90-98c62 0 83 45 84 108H66c0 31 8 55 39 56 18 0 30-7 34-22zm-45-69c5-46-57-63-70-21-2 6-4 13-4 21h74" id="ae"/><g id="l"><use transform="matrix(0.04999999999999997,0,0,0.04999999999999997,0,0)" xlink:href="#ad"/><use transform="matrix(0.04999999999999997,0,0,0.04999999999999997,5.949999999999997,0)" xlink:href="#Y"/><use transform="matrix(0.04999999999999997,0,0,0.04999999999999997,16.899999999999988,0)" xlink:href="#T"/><use transform="matrix(0.04999999999999997,0,0,0.04999999999999997,27.849999999999984,0)" xlink:href="#ae"/></g><g id="m"><use transform="matrix(0.04999999999999997,0,0,0.04999999999999997,0,0)" xlink:href="#Y"/><use transform="matrix(0.04999999999999997,0,0,0.04999999999999997,10.949999999999992,0)" xlink:href="#R"/></g><path fill="#333" d="M220-157c-53 9-28 100-34 157h-49v-107c1-27-5-49-29-50C55-147 81-57 75 0H25l-1-190h47c2 12-1 28 3 38 10-53 101-56 108 0 13-22 24-43 59-42 82 1 51 116 57 194h-49v-107c-1-25-5-48-29-50" id="af"/><path fill="#333" d="M102-93c0 74-22 123-52 168H0C30 29 54-18 53-93c0-74-22-123-53-168h50c30 45 52 94 52 168" id="ag"/><g id="n"><use transform="matrix(0.04999999999999997,0,0,0.04999999999999997,0,0)" xlink:href="#af"/><use transform="matrix(0.04999999999999997,0,0,0.04999999999999997,15.99999999999999,0)" xlink:href="#Y"/><use transform="matrix(0.04999999999999997,0,0,0.04999999999999997,26.94999999999998,0)" xlink:href="#R"/><use transform="matrix(0.04999999999999997,0,0,0.04999999999999997,33.949999999999974,0)" xlink:href="#ae"/><use transform="matrix(0.04999999999999997,0,0,0.04999999999999997,43.94999999999997,0)" xlink:href="#ag"/></g><path d="M136-208V0H84v-208H4v-40h212v40h-80" id="ah"/><path d="M133-34C117-15 103 5 69 4 32 3 11-16 11-54c-1-60 55-63 116-61 1-26-3-47-28-47-18 1-26 9-28 27l-52-2c7-38 36-58 82-57s74 22 75 68l1 82c-1 14 12 18 25 15v27c-30 8-71 5-69-32zm-48 3c29 0 43-24 42-57-32 0-66-3-65 30 0 17 8 27 23 27" id="ai"/><g id="o"><use transform="matrix(0.04999999999999998,0,0,0.04999999999999998,0,0)" xlink:href="#ah"/><use transform="matrix(0.04999999999999998,0,0,0.04999999999999998,9.949999999999996,0)" xlink:href="#M"/><use transform="matrix(0.04999999999999998,0,0,0.04999999999999998,16.949999999999992,0)" xlink:href="#ai"/><use transform="matrix(0.04999999999999998,0,0,0.04999999999999998,26.94999999999999,0)" xlink:href="#G"/><use transform="matrix(0.04999999999999998,0,0,0.04999999999999998,37.899999999999984,0)" xlink:href="#P"/><use transform="matrix(0.04999999999999998,0,0,0.04999999999999998,47.89999999999998,0)" xlink:href="#K"/><use transform="matrix(0.04999999999999998,0,0,0.04999999999999998,52.899999999999984,0)" xlink:href="#ai"/><use transform="matrix(0.04999999999999998,0,0,0.04999999999999998,62.89999999999998,0)" xlink:href="#H"/><use transform="matrix(0.04999999999999998,0,0,0.04999999999999998,68.84999999999998,0)" xlink:href="#J"/><use transform="matrix(0.04999999999999998,0,0,0.04999999999999998,73.84999999999998,0)" xlink:href="#B"/><use transform="matrix(0.04999999999999998,0,0,0.04999999999999998,84.79999999999998,0)" xlink:href="#G"/></g><path d="M238-95c0 69-44 99-111 99C63 4 22-25 22-93v-155h51v151c-1 38 19 59 55 60 90 1 49-130 58-211h52v153" id="aj"/><g id="p"><use transform="matrix(0.04999999999999998,0,0,0.04999999999999998,0,0)" xlink:href="#aj"/><use transform="matrix(0.04999999999999998,0,0,0.04999999999999998,12.949999999999996,0)" xlink:href="#G"/><use transform="matrix(0.04999999999999998,0,0,0.04999999999999998,23.89999999999999,0)" xlink:href="#J"/><use transform="matrix(0.04999999999999998,0,0,0.04999999999999998,28.899999999999988,0)" xlink:href="#H"/></g><path d="M169-182c-1-43-94-46-97-3 18 66 151 10 154 114 3 95-165 93-204 36-6-8-10-19-12-30l50-8c3 46 112 56 116 5-17-69-150-10-154-114-4-87 153-88 188-35 5 8 8 18 10 28" id="ak"/><g id="q"><use transform="matrix(0.04999999999999998,0,0,0.04999999999999998,0,0)" xlink:href="#ak"/><use transform="matrix(0.04999999999999998,0,0,0.04999999999999998,11.999999999999996,0)" xlink:href="#B"/><use transform="matrix(0.04999999999999998,0,0,0.04999999999999998,22.949999999999992,0)" xlink:href="#D"/><use transform="matrix(0.04999999999999998,0,0,0.04999999999999998,33.89999999999999,0)" xlink:href="#M"/><use transform="matrix(0.04999999999999998,0,0,0.04999999999999998,40.89999999999999,0)" xlink:href="#C"/><use transform="matrix(0.04999999999999998,0,0,0.04999999999999998,50.89999999999999,0)" xlink:href="#F"/></g><path d="M195-6C206 82 75 100 31 46c-4-6-6-13-8-21l49-6c3 16 16 24 34 25 40 0 42-37 40-79-11 22-30 35-61 35-53 0-70-43-70-97 0-56 18-96 73-97 30 0 46 14 59 34l2-30h47zm-90-29c32 0 41-27 41-63 0-35-9-62-40-62-32 0-39 29-40 63 0 36 9 62 39 62" id="al"/><g id="r"><use transform="matrix(0.04999999999999998,0,0,0.04999999999999998,0,0)" xlink:href="#x"/><use transform="matrix(0.04999999999999998,0,0,0.04999999999999998,10.949999999999996,0)" xlink:href="#ai"/><use transform="matrix(0.04999999999999998,0,0,0.04999999999999998,20.949999999999992,0)" xlink:href="#G"/><use transform="matrix(0.04999999999999998,0,0,0.04999999999999998,31.899999999999988,0)" xlink:href="#al"/><use transform="matrix(0.04999999999999998,0,0,0.04999999999999998,42.84999999999998,0)" xlink:href="#D"/><use transform="matrix(0.04999999999999998,0,0,0.04999999999999998,53.79999999999998,0)" xlink:href="#ai"/><use transform="matrix(0.04999999999999998,0,0,0.04999999999999998,63.79999999999997,0)" xlink:href="#al"/><use transform="matrix(0.04999999999999998,0,0,0.04999999999999998,74.74999999999997,0)" xlink:href="#F"/></g><g id="s"><use transform="matrix(0.04999999999999998,0,0,0.04999999999999998,0,0)" xlink:href="#ah"/><use transform="matrix(0.04999999999999998,0,0,0.04999999999999998,9.599999999999996,0)" xlink:href="#ai"/><use transform="matrix(0.04999999999999998,0,0,0.04999999999999998,19.599999999999994,0)" xlink:href="#M"/><use transform="matrix(0.04999999999999998,0,0,0.04999999999999998,26.59999999999999,0)" xlink:href="#al"/><use transform="matrix(0.04999999999999998,0,0,0.04999999999999998,37.54999999999998,0)" xlink:href="#F"/><use transform="matrix(0.04999999999999998,0,0,0.04999999999999998,47.54999999999998,0)" xlink:href="#H"/></g><g id="t"><use transform="matrix(0.04999999999999998,0,0,0.04999999999999998,0,0)" xlink:href="#x"/><use transform="matrix(0.04999999999999998,0,0,0.04999999999999998,10.949999999999996,0)" xlink:href="#ai"/><use transform="matrix(0.04999999999999998,0,0,0.04999999999999998,20.949999999999992,0)" xlink:href="#G"/><use transform="matrix(0.04999999999999998,0,0,0.04999999999999998,31.899999999999988,0)" xlink:href="#al"/><use transform="matrix(0.04999999999999998,0,0,0.04999999999999998,42.84999999999998,0)" xlink:href="#D"/><use transform="matrix(0.04999999999999998,0,0,0.04999999999999998,53.79999999999998,0)" xlink:href="#ai"/><use transform="matrix(0.04999999999999998,0,0,0.04999999999999998,63.79999999999997,0)" xlink:href="#al"/><use transform="matrix(0.04999999999999998,0,0,0.04999999999999998,74.74999999999997,0)" xlink:href="#F"/></g><path d="M135-194c53 0 70 44 70 98 0 56-19 98-73 100-31 1-45-17-59-34 3 33 2 69 2 105H25l-1-265h48c2 10 0 23 3 31 11-24 29-35 60-35zM114-30c33 0 39-31 40-66 0-38-9-64-40-64-56 0-55 130 0 130" id="am"/><g id="u"><use transform="matrix(0.04999999999999998,0,0,0.04999999999999998,0,0)" xlink:href="#L"/><use transform="matrix(0.04999999999999998,0,0,0.04999999999999998,5.9499999999999975,0)" xlink:href="#B"/><use transform="matrix(0.04999999999999998,0,0,0.04999999999999998,16.89999999999999,0)" xlink:href="#am"/><use transform="matrix(0.04999999999999998,0,0,0.04999999999999998,27.84999999999999,0)" xlink:href="#H"/><use transform="matrix(0.04999999999999998,0,0,0.04999999999999998,33.79999999999998,0)" xlink:href="#J"/><use transform="matrix(0.04999999999999998,0,0,0.04999999999999998,38.79999999999998,0)" xlink:href="#B"/><use transform="matrix(0.04999999999999998,0,0,0.04999999999999998,49.74999999999998,0)" xlink:href="#G"/><use transform="matrix(0.04999999999999998,0,0,0.04999999999999998,60.69999999999998,0)" xlink:href="#ai"/><use transform="matrix(0.04999999999999998,0,0,0.04999999999999998,70.69999999999997,0)" xlink:href="#K"/><use transform="matrix(0.04999999999999998,0,0,0.04999999999999998,75.69999999999997,0)" xlink:href="#N"/></g><path d="M67-125c0 54 23 88 75 88 28 0 53-7 68-21v-34h-60v-39h108v91C232-14 192 4 140 4 58 4 20-42 15-125 8-236 126-280 215-234c19 10 29 26 37 47l-47 15c-11-23-29-39-63-39-53 1-75 33-75 86" id="an"/><g id="v"><use transform="matrix(0.04999999999999998,0,0,0.04999999999999998,0,0)" xlink:href="#an"/><use transform="matrix(0.04999999999999998,0,0,0.04999999999999998,13.999999999999995,0)" xlink:href="#M"/><use transform="matrix(0.04999999999999998,0,0,0.04999999999999998,20.999999999999993,0)" xlink:href="#B"/><use transform="matrix(0.04999999999999998,0,0,0.04999999999999998,31.94999999999999,0)" xlink:href="#D"/><use transform="matrix(0.04999999999999998,0,0,0.04999999999999998,42.899999999999984,0)" xlink:href="#am"/></g></defs></g></svg>